<svg width="42" height="37" viewBox="0 0 42 37" fill="none" xmlns="http://www.w3.org/2000/svg">
<path fill-rule="evenodd" clip-rule="evenodd" d="M0 15C0 10.8579 0 14.25 0 12H42C42 15.75 42 10.8579 42 15V16.5C42 18.9854 39.9854 21 37.5 21H29.4854C28.2918 21 27.1472 21.4742 26.3032 22.3181L22.1186 26.5028C20.7489 27.8724 20.4095 29.9648 21.2757 31.6973L22.3416 33.8292C22.5741 34.2942 22.5493 34.8463 22.2759 35.2885C22.0026 35.7307 21.5199 36 21 36H7.5C3.35787 36 0 32.6421 0 28.5V15Z" fill="url(#paint0_linear_7_1084)"/>
<path fill-rule="evenodd" clip-rule="evenodd" d="M30.7718 33.4086C31.34 34.0113 31.34 34.9887 30.7718 35.5914C30.2035 36.1941 29.282 36.1941 28.7138 35.5914L24.4711 31.0914C23.9029 30.4887 23.9029 29.5113 24.4711 28.9086L28.7138 24.4086C29.282 23.8058 30.2035 23.8058 30.7717 24.4086C31.34 25.0113 31.34 25.9887 30.7718 26.5914L27.5581 30L30.7718 33.4086ZM34.7138 26.5914C34.1455 25.9887 34.1455 25.0115 34.7138 24.4086C35.282 23.8059 36.2035 23.8059 36.7718 24.4086L41.0144 28.9086C41.5826 29.5115 41.5826 30.4887 41.0144 31.0914L36.7718 35.5914C36.2035 36.1943 35.282 36.1943 34.7138 35.5914C34.1455 34.9887 34.1455 34.0113 34.7138 33.4086L37.9274 30L34.7138 26.5914Z" fill="white"/>
<path fill-rule="evenodd" clip-rule="evenodd" d="M7.5 0C3.35787 0 0 3.35787 0 7.5V9H42V7.5C42 3.35787 38.6421 0 34.5 0H7.5ZM6 6C6.82842 6 7.5 5.32842 7.5 4.5C7.5 3.67158 6.82842 3 6 3C5.17158 3 4.5 3.67158 4.5 4.5C4.5 5.32842 5.17158 6 6 6ZM10.5 6C11.3284 6 12 5.32842 12 4.5C12 3.67158 11.3284 3 10.5 3C9.67158 3 9 3.67158 9 4.5C9 5.32842 9.67158 6 10.5 6ZM16.5 4.5C16.5 5.32842 15.8285 6 15 6C14.1715 6 13.5 5.32842 13.5 4.5C13.5 3.67158 14.1715 3 15 3C15.8285 3 16.5 3.67158 16.5 4.5Z" fill="url(#paint1_linear_7_1084)"/>
<defs>
<linearGradient id="paint0_linear_7_1084" x1="30.122" y1="17.4089" x2="21.5311" y2="36.7861" gradientUnits="userSpaceOnUse">
<stop stop-color="#9DE8EE"/>
<stop offset="0.490049" stop-color="#FA7C0B"/>
<stop offset="1" stop-color="#9F8CED"/>
</linearGradient>
<linearGradient id="paint1_linear_7_1084" x1="30.122" y1="2.02833" x2="28.7153" y2="10.4892" gradientUnits="userSpaceOnUse">
<stop stop-color="#9DE8EE"/>
<stop offset="0.490049" stop-color="#FA7C0B"/>
<stop offset="1" stop-color="#9F8CED"/>
</linearGradient>
</defs>
</svg>
