<svg width="42" height="36" viewBox="0 0 42 36" fill="none" xmlns="http://www.w3.org/2000/svg">
<path fill-rule="evenodd" clip-rule="evenodd" d="M7.5 0C5.51088 0 3.60322 0.790176 2.1967 2.1967C0.790176 3.60322 0 5.51088 0 7.5V28.5C0 30.4891 0.790176 32.3968 2.1967 33.8033C3.60322 35.2098 5.51088 36 7.5 36H21C21.3978 36 21.7794 35.842 22.0607 35.5607C22.342 35.2794 22.5 34.8978 22.5 34.5C22.5 34.1022 22.342 33.7206 22.0607 33.4393C21.7794 33.158 21.3978 33 21 33H7.5C6.30653 33 5.16193 32.5259 4.31802 31.682C3.47411 30.8381 3 29.6935 3 28.5V12H39V19.5C39 19.8978 39.158 20.2794 39.4393 20.5607C39.7206 20.842 40.1022 21 40.5 21C40.8978 21 41.2794 20.842 41.5607 20.5607C41.842 20.2794 42 19.8978 42 19.5V7.5C42 5.51088 41.2098 3.60322 39.8033 2.1967C38.3968 0.790176 36.4891 0 34.5 0H7.5ZM7.5 7.5C7.89782 7.5 8.27936 7.34196 8.56066 7.06066C8.84196 6.77936 9 6.39782 9 6C9 5.60218 8.84196 5.22064 8.56066 4.93934C8.27936 4.65804 7.89782 4.5 7.5 4.5C7.10218 4.5 6.72064 4.65804 6.43934 4.93934C6.15804 5.22064 6 5.60218 6 6C6 6.39782 6.15804 6.77936 6.43934 7.06066C6.72064 7.34196 7.10218 7.5 7.5 7.5ZM12 7.5C12.3978 7.5 12.7794 7.34196 13.0607 7.06066C13.342 6.77936 13.5 6.39782 13.5 6C13.5 5.60218 13.342 5.22064 13.0607 4.93934C12.7794 4.65804 12.3978 4.5 12 4.5C11.6022 4.5 11.2206 4.65804 10.9393 4.93934C10.658 5.22064 10.5 5.60218 10.5 6C10.5 6.39782 10.658 6.77936 10.9393 7.06066C11.2206 7.34196 11.6022 7.5 12 7.5ZM18 6C18 6.39782 17.842 6.77936 17.5607 7.06066C17.2794 7.34196 16.8978 7.5 16.5 7.5C16.1022 7.5 15.7206 7.34196 15.4393 7.06066C15.158 6.77936 15 6.39782 15 6C15 5.60218 15.158 5.22064 15.4393 4.93934C15.7206 4.65804 16.1022 4.5 16.5 4.5C16.8978 4.5 17.2794 4.65804 17.5607 4.93934C17.842 5.22064 18 5.60218 18 6Z" fill="url(#paint0_linear_260_21)"/>
<path fill-rule="evenodd" clip-rule="evenodd" d="M34.5001 24C34.1023 24 33.7208 24.158 33.4395 24.4393C33.1582 24.7206 33.0001 25.1022 33.0001 25.5C33.0001 25.8978 33.1582 26.2794 33.4395 26.5607C33.7208 26.842 34.1023 27 34.5001 27H37.3801L33.9826 31.245L30.4741 30.0765C30.2099 29.9886 29.9263 29.976 29.6553 30.0401C29.3843 30.1042 29.1365 30.2425 28.9396 30.4395L25.9396 33.4395C25.6664 33.7224 25.5152 34.1013 25.5186 34.4946C25.522 34.8879 25.6798 35.2641 25.9579 35.5422C26.236 35.8203 26.6122 35.9781 27.0055 35.9815C27.3988 35.9849 27.7777 35.8337 28.0606 35.5605L30.4051 33.216L34.0261 34.4235C34.3172 34.5205 34.631 34.5259 34.9252 34.439C35.2195 34.3521 35.48 34.1771 35.6716 33.9375L39.0001 29.73V31.5C39.0001 31.8978 39.1582 32.2794 39.4395 32.5607C39.7208 32.842 40.1023 33 40.5001 33C40.8979 33 41.2795 32.842 41.5608 32.5607C41.8421 32.2794 42.0001 31.8978 42.0001 31.5V25.5C42.0001 25.1022 41.8421 24.7206 41.5608 24.4393C41.2795 24.158 40.8979 24 40.5001 24H34.5001Z" fill="white"/>
<defs>
<linearGradient id="paint0_linear_260_21" x1="30.122" y1="8.11332" x2="14.0853" y2="32.2275" gradientUnits="userSpaceOnUse">
<stop stop-color="#9DE8EE"/>
<stop offset="0.490049" stop-color="#FA7C0B"/>
<stop offset="1" stop-color="#9F8CED"/>
</linearGradient>
</defs>
</svg>
