<svg width="33" height="40" viewBox="0 0 33 40" fill="none" xmlns="http://www.w3.org/2000/svg">
<path fill-rule="evenodd" clip-rule="evenodd" d="M22.2718 36.9086C22.84 37.5113 22.84 38.4887 22.2718 39.0914C21.7035 39.6941 20.782 39.6941 20.2138 39.0914L15.9711 34.5914C15.4029 33.9887 15.4029 33.0113 15.9711 32.4086L20.2138 27.9086C20.782 27.3058 21.7035 27.3058 22.2717 27.9086C22.84 28.5113 22.84 29.4887 22.2718 30.0914L19.0581 33.5L22.2718 36.9086ZM26.2138 30.0914C25.6455 29.4887 25.6455 28.5115 26.2138 27.9086C26.782 27.3059 27.7035 27.3059 28.2718 27.9086L32.5144 32.4086C33.0826 33.0115 33.0826 33.9887 32.5144 34.5914L28.2718 39.0914C27.7035 39.6943 26.782 39.6943 26.2138 39.0914C25.6455 38.4887 25.6455 37.5113 26.2138 36.9086L29.4274 33.5L26.2138 30.0914Z" fill="white"/>
<path fill-rule="evenodd" clip-rule="evenodd" d="M0.5 5C0.5 2.51471 2.51472 0.5 5 0.5H23C25.4853 0.5 27.5 2.51472 27.5 5V23C27.5 23.8284 26.8284 24.5 26 24.5H19.7426C19.3448 24.5 18.9634 24.6581 18.6819 24.9394L12.0896 31.5317C11.6332 31.9883 11.5199 32.6856 11.8086 33.2631L13.8416 37.3292C14.0741 37.7942 14.0494 38.3463 13.7761 38.7886C13.5026 39.2308 13.0199 39.5 12.5 39.5H5C2.51472 39.5 0.5 37.4854 0.5 35V5ZM9.5 3.5C8.67155 3.5 8 4.17158 8 5C8 5.82842 8.67155 6.5 9.5 6.5H18.5C19.3284 6.5 20 5.82842 20 5C20 4.17158 19.3284 3.5 18.5 3.5H9.5Z" fill="url(#paint0_linear_257_18)"/>
<defs>
<linearGradient id="paint0_linear_257_18" x1="19.8642" y1="9.28943" x2="1.14714" y2="25.9906" gradientUnits="userSpaceOnUse">
<stop stop-color="#9DE8EE"/>
<stop offset="0.490049" stop-color="#FA7C0B"/>
<stop offset="1" stop-color="#9F8CED"/>
</linearGradient>
</defs>
</svg>
