<svg width="42" height="40" viewBox="0 0 42 40" fill="none" xmlns="http://www.w3.org/2000/svg">
<path fill-rule="evenodd" clip-rule="evenodd" d="M7.5 0C5.51088 0 3.60322 0.790176 2.1967 2.1967C0.790176 3.60322 0 5.51088 0 7.5V28.5C0 30.4891 0.790176 32.3968 2.1967 33.8033C3.60322 35.2098 5.51088 36 7.5 36H21C21.3978 36 21.7794 35.842 22.0607 35.5607C22.342 35.2794 22.5 34.8978 22.5 34.5C22.5 34.1022 22.342 33.7206 22.0607 33.4393C21.7794 33.158 21.3978 33 21 33H7.5C6.30653 33 5.16193 32.5259 4.31802 31.682C3.47411 30.8381 3 29.6935 3 28.5V12H39V19.5C39 19.8978 39.158 20.2794 39.4393 20.5607C39.7206 20.842 40.1022 21 40.5 21C40.8978 21 41.2794 20.842 41.5607 20.5607C41.842 20.2794 42 19.8978 42 19.5V7.5C42 5.51088 41.2098 3.60322 39.8033 2.1967C38.3968 0.790176 36.4891 0 34.5 0H7.5ZM7.5 7.5C7.89782 7.5 8.27936 7.34196 8.56066 7.06066C8.84196 6.77936 9 6.39782 9 6C9 5.60218 8.84196 5.22064 8.56066 4.93934C8.27936 4.65804 7.89782 4.5 7.5 4.5C7.10218 4.5 6.72064 4.65804 6.43934 4.93934C6.15804 5.22064 6 5.60218 6 6C6 6.39782 6.15804 6.77936 6.43934 7.06066C6.72064 7.34196 7.10218 7.5 7.5 7.5ZM12 7.5C12.3978 7.5 12.7794 7.34196 13.0607 7.06066C13.342 6.77936 13.5 6.39782 13.5 6C13.5 5.60218 13.342 5.22064 13.0607 4.93934C12.7794 4.65804 12.3978 4.5 12 4.5C11.6022 4.5 11.2206 4.65804 10.9393 4.93934C10.658 5.22064 10.5 5.60218 10.5 6C10.5 6.39782 10.658 6.77936 10.9393 7.06066C11.2206 7.34196 11.6022 7.5 12 7.5ZM18 6C18 6.39782 17.842 6.77936 17.5607 7.06066C17.2794 7.34196 16.8978 7.5 16.5 7.5C16.1022 7.5 15.7206 7.34196 15.4393 7.06066C15.158 6.77936 15 6.39782 15 6C15 5.60218 15.158 5.22064 15.4393 4.93934C15.7206 4.65804 16.1022 4.5 16.5 4.5C16.8978 4.5 17.2794 4.65804 17.5607 4.93934C17.842 5.22064 18 5.60218 18 6Z" fill="url(#paint0_linear_257_19)"/>
<path fill-rule="evenodd" clip-rule="evenodd" d="M33.408 24.8445C30.0135 23.874 26.874 27.0135 27.8445 30.408L29.2035 35.163C30.1455 38.4615 34.2855 39.534 36.711 37.1085L36.9105 36.9105L38.742 38.742C39.0233 39.0235 39.4048 39.1817 39.8027 39.1818C40.2006 39.1819 40.5823 39.024 40.8638 38.7428C41.1452 38.4615 41.3034 38.0799 41.3036 37.682C41.3037 37.2841 41.1458 36.9025 40.8645 36.621L39.0315 34.788L40.1085 33.7125C42.534 31.2855 41.4615 27.1455 38.1615 26.2035L33.4065 24.8445H33.408ZM33 16.5C33 16.1022 32.842 15.7206 32.5607 15.4393C32.2794 15.158 31.8978 15 31.5 15C31.1022 15 30.7206 15.158 30.4393 15.4393C30.158 15.7206 30 16.1022 30 16.5V19.5C30 19.8978 30.158 20.2794 30.4393 20.5607C30.7206 20.842 31.1022 21 31.5 21C31.8978 21 32.2794 20.842 32.5607 20.5607C32.842 20.2794 33 19.8978 33 19.5V16.5ZM20.5605 16.9395C20.8418 16.6583 21.2233 16.5003 21.621 16.5003C22.0187 16.5003 22.4002 16.6583 22.6815 16.9395L24.804 19.0605C25.0853 19.342 25.2432 19.7236 25.2431 20.1215C25.2429 20.5194 25.0847 20.901 24.8032 21.1823C24.5218 21.4635 24.1401 21.6214 23.7422 21.6213C23.3443 21.6212 22.9628 21.463 22.6815 21.1815L20.5605 19.0605C20.2793 18.7792 20.1213 18.3977 20.1213 18C20.1213 17.6023 20.2793 17.2208 20.5605 16.9395ZM16.5 27C16.5 26.6022 16.658 26.2206 16.9393 25.9393C17.2206 25.658 17.6022 25.5 18 25.5H21C21.3978 25.5 21.7794 25.658 22.0607 25.9393C22.342 26.2206 22.5 26.6022 22.5 27C22.5 27.3978 22.342 27.7794 22.0607 28.0607C21.7794 28.342 21.3978 28.5 21 28.5H18C17.6022 28.5 17.2206 28.342 16.9393 28.0607C16.658 27.7794 16.5 27.3978 16.5 27Z" fill="white"/>
<defs>
<linearGradient id="paint0_linear_257_19" x1="30.122" y1="8.11332" x2="14.0853" y2="32.2275" gradientUnits="userSpaceOnUse">
<stop stop-color="#9DE8EE"/>
<stop offset="0.490049" stop-color="#FA7C0B"/>
<stop offset="1" stop-color="#9F8CED"/>
</linearGradient>
</defs>
</svg>
