<svg width="42" height="42" viewBox="0 0 42 42" fill="none" xmlns="http://www.w3.org/2000/svg">
<path fill-rule="evenodd" clip-rule="evenodd" d="M16.5 16.5C16.5 14.0146 18.5146 12 21 12C23.4853 12 25.5 14.0146 25.5 16.5V18C25.5 20.4853 23.4853 22.5 21 22.5C18.5146 22.5 16.5 20.4853 16.5 18V16.5ZM15.8158 27.8158C16.3383 27.2935 17.0469 27 17.7856 27H24.2142C24.9531 27 25.6617 27.2935 26.184 27.8158C26.7064 28.3383 27 29.0469 27 29.7856C27 30.6141 27.6715 31.2856 28.5 31.2856C29.3284 31.2856 30 30.6141 30 29.7856C30 28.2513 29.3904 26.7796 28.3053 25.6945C27.2203 24.6096 25.7487 24 24.2142 24H17.7856C16.2513 24 14.7796 24.6096 13.6945 25.6945C12.6096 26.7796 12 28.2513 12 29.7856C12 30.6141 12.6716 31.2856 13.5 31.2856C14.3284 31.2856 15 30.6141 15 29.7856C15 29.0469 15.2935 28.3383 15.8158 27.8158Z" fill="white"/>
<path fill-rule="evenodd" clip-rule="evenodd" d="M0 21C0 9.40202 9.40202 0 21 0C32.598 0 42 9.40202 42 21C42 32.598 32.598 42 21 42C9.40202 42 0 32.598 0 21ZM19.5 3.0616V4.5C19.5 5.32842 20.1716 6 21 6C21.8284 6 22.5 5.32842 22.5 4.5V3.0616C31.2447 3.78303 38.217 10.7553 38.9384 19.5H37.5C36.6716 19.5 36 20.1716 36 21C36 21.8284 36.6716 22.5 37.5 22.5H38.9384C38.217 31.2447 31.2447 38.217 22.5 38.9384V37.5C22.5 36.6716 21.8284 36 21 36C20.1716 36 19.5 36.6716 19.5 37.5V38.9384C10.7553 38.217 3.78303 31.2447 3.0616 22.5H4.5C5.32842 22.5 6 21.8284 6 21C6 20.1716 5.32842 19.5 4.5 19.5H3.0616C3.78303 10.7553 10.7553 3.78303 19.5 3.0616Z" fill="url(#paint0_linear_257_20)"/>
<defs>
<linearGradient id="paint0_linear_257_20" x1="30.122" y1="9.46554" x2="10.4704" y2="34.794" gradientUnits="userSpaceOnUse">
<stop stop-color="#9DE8EE"/>
<stop offset="0.490049" stop-color="#FA7C0B"/>
<stop offset="1" stop-color="#9F8CED"/>
</linearGradient>
</defs>
</svg>
