<svg width="91" height="38" viewBox="0 0 91 38" fill="none" xmlns="http://www.w3.org/2000/svg">
<path fill-rule="evenodd" clip-rule="evenodd" d="M34 0L31 34L17 38L3 34L0 0H34ZM8.80078 22H12.8008L12.8984 24.5L17 25.8984L21.1016 24.5L21.3984 20H12.6016L12.3985 16H21.6016L21.8985 12H8.10159L7.80081 8H26.1016L25.6016 16L24.8985 27.5L17 30.1016L9.10159 27.5L8.80078 22Z" fill="white"/>
<path d="M53.04 22.08H56.4V25.512L53.616 27.12H46.824L44.04 25.512V11.688L46.824 10.08H53.616L56.4 11.688V15.12H53.04V12.96H47.4V24.24H53.04V22.08ZM60.7153 18.48V11.688L63.4993 10.08H69.5713L72.3553 11.688V14.88H68.9953V12.96H64.0753V16.968H69.5713L72.3553 18.576V25.512L69.5713 27.12H63.2593L60.4753 25.512V22.32H63.8353V24.24H68.9953V20.088H63.4993L60.7153 18.48ZM76.9219 18.48V11.688L79.7059 10.08H85.7779L88.5619 11.688V14.88H85.2019V12.96H80.2819V16.968H85.7779L88.5619 18.576V25.512L85.7779 27.12H79.4659L76.6819 25.512V22.32H80.0419V24.24H85.2019V20.088H79.7059L76.9219 18.48Z" fill="white"/>
</svg>
