<svg width="138" height="31" viewBox="0 0 138 31" fill="none" xmlns="http://www.w3.org/2000/svg">
<g clip-path="url(#clip0_126_97)">
<path d="M39.2527 12.8883C38.2744 12.2455 35.7041 11.9714 33.8354 12.4624C33.735 10.6453 32.7749 9.11385 31.0186 7.77856L30.369 7.35271L29.9356 7.99149C29.0844 9.25291 28.7256 10.9344 28.8521 12.463C28.9526 13.4048 29.2877 14.4631 29.9356 15.2311C27.5031 16.6085 25.2614 16.2957 15.3325 16.2957H0.00345108C-0.0414762 18.4845 0.319124 22.694 3.06146 26.1211C3.36413 26.4996 3.69635 26.8661 4.05695 27.2186C6.28677 29.3981 9.65572 30.9965 14.6935 31.0006C22.3784 31.0075 28.9632 26.952 32.9688 17.1475C34.2871 17.1688 37.766 17.3777 39.4685 14.1665C39.5099 14.1122 39.9018 13.3147 39.9018 13.3147L39.2527 12.8889V12.8883ZM10.0075 10.6297H5.6968V14.8376H10.0075V10.6297ZM15.5767 10.6297H11.266V14.8376H15.5767V10.6297ZM21.1459 10.6297H16.8352V14.8376H21.1459V10.6297ZM26.7151 10.6297H22.4044V14.8376H26.7151V10.6297ZM4.43943 10.6297H0.127592V14.8376H4.43824V10.6297H4.43943ZM10.0086 5.31458H5.69798V9.52239H10.0086V5.31458ZM15.5778 5.31458H11.2672V9.52239H15.5778V5.31458ZM21.147 5.31458H16.8364V9.52239H21.147V5.31458ZM21.1453 0H16.8346V4.20781H21.1453V0Z" fill="white"/>
<path d="M137.734 24.507C137.734 25.6 136.855 26.458 135.711 26.458C134.568 26.458 133.677 25.6 133.677 24.507C133.677 23.4141 134.579 22.5797 135.711 22.5797C136.844 22.5797 137.734 23.4378 137.734 24.507ZM134.182 24.507C134.182 25.3651 134.832 26.0466 135.723 26.0466C136.614 26.0466 137.228 25.3651 137.228 24.5192C137.228 23.6732 136.59 22.9675 135.712 22.9675C134.834 22.9675 134.183 23.6611 134.183 24.507H134.182ZM135.399 25.518H134.941V23.5907C135.121 23.5555 135.375 23.5318 135.699 23.5318C136.073 23.5318 136.241 23.5907 136.385 23.6732C136.494 23.7552 136.578 23.9081 136.578 24.0962C136.578 24.308 136.41 24.4724 136.17 24.5428V24.5665C136.361 24.6363 136.47 24.7777 136.53 25.0362C136.59 25.3299 136.626 25.4476 136.675 25.518H136.181C136.121 25.4476 136.085 25.2716 136.025 25.0477C135.989 24.8365 135.868 24.7425 135.615 24.7425H135.399V25.5186V25.518ZM135.411 24.4251H135.627C135.88 24.4251 136.085 24.3432 136.085 24.1435C136.085 23.9669 135.953 23.8486 135.663 23.8486C135.543 23.8486 135.458 23.8608 135.411 23.8734V24.4251Z" fill="white"/>
<path d="M60.158 5.00188C59.8749 4.73182 59.535 4.59448 59.1277 4.59448C58.7204 4.59448 58.3704 4.73182 58.0979 5.00188C57.8248 5.27193 57.6912 5.61816 57.6912 6.03075V12.9207C56.2901 11.7902 54.6734 11.2201 52.8343 11.2201C50.6967 11.2201 48.8689 11.9737 47.3544 13.4862C45.8398 14.9934 45.0879 16.8169 45.0879 18.9554C45.0879 21.0939 45.8452 22.9122 47.3544 24.4246C48.8689 25.9319 50.692 26.6907 52.8343 26.6907C54.9766 26.6907 56.7796 25.9371 58.3142 24.4246C59.8288 22.9324 60.5807 21.1095 60.5807 18.9554V6.03017C60.5807 5.61758 60.4418 5.27136 60.158 5.0013V5.00188ZM57.3099 20.8193V20.8296C57.0575 21.4153 56.7122 21.9295 56.2748 22.3675C55.8373 22.8106 55.3218 23.1569 54.7348 23.4165C54.1425 23.6762 53.5141 23.8037 52.8396 23.8037C52.1651 23.8037 51.5214 23.6762 50.929 23.4165C50.3367 23.1569 49.8265 22.8106 49.3944 22.3727C48.9617 21.9347 48.617 21.4205 48.3646 20.8348C48.1122 20.2439 47.9833 19.6178 47.9833 18.9554C47.9833 18.2929 48.1122 17.6669 48.3646 17.076C48.617 16.4851 48.9623 15.9761 49.3944 15.5381C49.8271 15.1002 50.342 14.7539 50.929 14.4943C51.5214 14.2346 52.1551 14.1071 52.8396 14.1071C53.5242 14.1071 54.1425 14.2346 54.7348 14.4943C55.3272 14.7539 55.8373 15.1002 56.2748 15.5433C56.7122 15.9865 57.0575 16.5006 57.3099 17.0812C57.5623 17.6669 57.6912 18.2883 57.6912 18.9502C57.6912 19.6121 57.5623 20.2387 57.3099 20.8193Z" fill="white"/>
<path d="M124.156 15.9865C123.78 15.0696 123.207 14.2398 122.456 13.496L122.446 13.4908C120.916 11.9835 119.087 11.2247 116.966 11.2247C114.845 11.2247 113 11.9784 111.486 13.4908C109.971 14.998 109.22 16.8215 109.22 18.96C109.22 21.0985 109.977 22.9168 111.486 24.4292C113 25.9365 114.824 26.6953 116.966 26.6953C118.912 26.6953 120.596 26.0692 122.029 24.8164C122.306 24.5314 122.446 24.1852 122.446 23.7824C122.446 23.3796 122.312 23.0236 122.039 22.7535C121.766 22.4835 121.421 22.3461 121.009 22.3461C120.649 22.3565 120.329 22.4736 120.057 22.7079C119.624 23.0743 119.155 23.3548 118.646 23.5383C118.135 23.7218 117.579 23.8135 116.972 23.8135C116.436 23.8135 115.921 23.7322 115.432 23.5643C114.942 23.3963 114.484 23.1667 114.077 22.8666C113.665 22.566 113.31 22.2099 113.006 21.787C112.702 21.3692 112.47 20.9058 112.316 20.3969H123.271C123.677 20.3969 124.017 20.2595 124.301 19.9895C124.585 19.7194 124.724 19.3732 124.724 18.9606C124.724 17.8913 124.532 16.8982 124.157 15.9865H124.156ZM112.305 17.5243C112.454 17.02 112.681 16.5566 112.985 16.1342C113.289 15.7164 113.649 15.3552 114.061 15.0546C114.479 14.7539 114.931 14.5249 115.431 14.3569C115.93 14.189 116.439 14.1076 116.966 14.1076C117.493 14.1076 118.001 14.189 118.495 14.3569C118.99 14.5249 119.444 14.7539 119.85 15.0546C120.262 15.3552 120.622 15.7113 120.926 16.1342C121.235 16.552 121.468 17.0154 121.627 17.5243H112.304H112.305Z" fill="white"/>
<path d="M137.619 12.1924C137.361 11.9431 137.037 11.7492 136.645 11.6067C136.254 11.4641 135.827 11.3672 135.358 11.3112C134.894 11.2552 134.456 11.2299 134.05 11.2299C133.127 11.2299 132.262 11.3776 131.449 11.673C130.635 11.9685 129.883 12.3909 129.193 12.9408V12.6661C129.193 12.2691 129.054 11.9327 128.77 11.6528C128.487 11.373 128.152 11.2304 127.756 11.2304C127.36 11.2304 127.009 11.373 126.726 11.6528C126.443 11.9327 126.304 12.2743 126.304 12.6661V25.2601C126.304 25.6571 126.443 25.9936 126.726 26.2734C127.009 26.5533 127.349 26.6958 127.756 26.6958C128.163 26.6958 128.492 26.5533 128.77 26.2734C129.054 25.9936 129.193 25.6519 129.193 25.2601V18.9605C129.193 18.2883 129.322 17.657 129.574 17.0661C129.826 16.4752 130.172 15.9662 130.609 15.5283C131.048 15.0903 131.563 14.7441 132.149 14.4942C132.741 14.2397 133.37 14.1122 134.045 14.1122C134.72 14.1122 135.358 14.2293 135.941 14.4584C136.172 14.5606 136.373 14.6113 136.548 14.6113C136.749 14.6113 136.94 14.5756 137.115 14.4994C137.29 14.4232 137.444 14.3211 137.573 14.1889C137.702 14.0568 137.804 13.9039 137.882 13.7256C137.959 13.5525 138.001 13.3638 138.001 13.1601C138.001 12.7631 137.872 12.4422 137.615 12.1924H137.619H137.619Z" fill="white"/>
<path d="M77.1436 15.9911C76.7677 15.0794 76.2061 14.2444 75.4494 13.4908C73.9201 11.9835 72.0917 11.2247 69.9694 11.2247C67.8472 11.2247 66.004 11.9784 64.4895 13.4908C62.975 14.998 62.2236 16.8215 62.2236 18.96C62.2236 21.0985 62.9809 22.9168 64.4895 24.4292C66.004 25.9365 67.8271 26.6953 69.9694 26.6953C72.1118 26.6953 73.9148 25.9417 75.4494 24.4292C76.9639 22.937 77.7159 21.1141 77.7159 18.96C77.7052 17.8908 77.5149 16.9029 77.1442 15.9911H77.1436ZM74.445 20.8187V20.8291C74.1926 21.4148 73.8474 21.9289 73.4099 22.3669C72.9725 22.8101 72.457 23.1563 71.87 23.416C71.283 23.6756 70.6493 23.8032 69.9748 23.8032C69.3003 23.8032 68.6565 23.6756 68.0642 23.416C67.4718 23.1563 66.9617 22.8101 66.5296 22.3721C66.0968 21.9341 65.7522 21.42 65.4998 20.8343C65.2474 20.2434 65.1185 19.6173 65.1185 18.9548C65.1185 18.2924 65.2474 17.6663 65.4998 17.0754C65.7522 16.4845 66.0974 15.9755 66.5296 15.5376C66.9623 15.0996 67.4772 14.7534 68.0642 14.4937C68.6565 14.234 69.2902 14.1065 69.9748 14.1065C70.6593 14.1065 71.2777 14.234 71.87 14.4937C72.4623 14.7534 72.9725 15.0996 73.4099 15.5428C73.8474 15.9859 74.1926 16.5001 74.445 17.0806C74.6974 17.6663 74.8263 18.2878 74.8263 18.9496C74.8263 19.6115 74.6974 20.2382 74.445 20.8187Z" fill="white"/>
<path d="M108.128 12.6609C108.128 12.4676 108.087 12.2841 108.01 12.111C107.932 11.9379 107.829 11.7804 107.701 11.6476C107.572 11.5155 107.417 11.4082 107.242 11.3372C107.067 11.2662 106.877 11.2252 106.676 11.2252C106.388 11.2252 106.13 11.2968 105.903 11.4445L97.6321 16.8174V6.0405C97.6321 5.63311 97.4932 5.29207 97.21 5.01163C96.9269 4.73176 96.5923 4.58923 96.1956 4.58923C95.799 4.58923 95.449 4.73176 95.1652 5.01163C94.8821 5.2915 94.7432 5.63311 94.7432 6.0405V25.2394C94.7432 25.6364 94.8821 25.978 95.1652 26.263C95.4484 26.5481 95.7883 26.6906 96.1956 26.6906C96.6029 26.6906 96.9322 26.5481 97.21 26.263C97.4932 25.978 97.6321 25.6364 97.6321 25.2394V20.2537L99.3216 19.1487L105.713 26.3138C105.971 26.5631 106.295 26.6854 106.681 26.6854C106.882 26.6854 107.073 26.6497 107.248 26.5735C107.423 26.5019 107.578 26.3952 107.706 26.263C107.835 26.1309 107.938 25.978 108.015 25.7997C108.092 25.6266 108.133 25.4379 108.133 25.2497C108.133 24.8729 108 24.5365 107.731 24.2416L101.783 17.5554L107.576 13.7971C107.947 13.5479 108.127 13.1659 108.127 12.6511V12.6615L108.128 12.6609Z" fill="white"/>
<path d="M83.6389 15.5277C84.0816 15.0897 84.5971 14.7435 85.1895 14.4936C85.7818 14.2392 86.4102 14.1116 87.0847 14.1116C87.6924 14.1116 88.254 14.2138 88.7742 14.4169C89.2891 14.6206 89.7839 14.9212 90.2521 15.313C90.5299 15.5317 90.8444 15.6437 91.1943 15.6437C91.6117 15.6437 91.9516 15.5064 92.2247 15.2311C92.4978 14.9559 92.6314 14.6096 92.6314 14.197C92.6314 13.7845 92.4665 13.4025 92.1319 13.1076C90.7102 11.8548 89.0266 11.2281 87.0847 11.2281C84.9471 11.2281 83.1193 11.9818 81.6047 13.4942C80.0902 15.0014 79.3389 16.8249 79.3389 18.9634C79.3389 21.102 80.0961 22.9202 81.6047 24.4327C83.1193 25.9399 84.9424 26.6987 87.0847 26.6987C89.0213 26.6987 90.7055 26.0726 92.1319 24.8193C92.4358 24.514 92.5906 24.1626 92.5906 23.7552C92.5906 23.3478 92.4564 22.9964 92.1839 22.7263C91.9108 22.4563 91.5662 22.319 91.1541 22.319C90.8042 22.3293 90.4998 22.4309 90.2426 22.6242C89.7791 23.0212 89.295 23.3167 88.7748 23.5152C88.2599 23.7137 87.6983 23.8106 87.0853 23.8106C86.4108 23.8106 85.7824 23.6831 85.1901 23.4286C84.5977 23.1741 84.0828 22.8279 83.6395 22.3951C83.1967 21.9623 82.8462 21.443 82.5937 20.8573C82.3413 20.2664 82.2124 19.6351 82.2124 18.9629C82.2124 18.2906 82.3413 17.6593 82.5937 17.0684C82.8462 16.4775 83.1961 15.9686 83.6395 15.5306V15.5254L83.6389 15.5277Z" fill="white"/>
</g>
<defs>
<clipPath id="clip0_126_97">
<rect width="138" height="31" fill="white"/>
</clipPath>
</defs>
</svg>
