<svg width="120" height="35" viewBox="0 0 120 35" fill="none" xmlns="http://www.w3.org/2000/svg">
<path d="M38.588 27.5C38.1027 27.5 37.704 27.3527 37.392 27.058C37.0973 26.746 36.95 26.3647 36.95 25.914V10.886C36.95 10.4353 37.0973 10.0627 37.392 9.768C37.704 9.456 38.0853 9.3 38.536 9.3H46.986C47.4367 9.3 47.8093 9.44733 48.104 9.742C48.416 10.0193 48.572 10.3833 48.572 10.834C48.572 11.2153 48.416 11.5533 48.104 11.848C47.8093 12.1427 47.4367 12.29 46.986 12.29H39.966L40.2 11.978V17.204L40.018 16.866H45.816C46.2667 16.866 46.6393 17.0133 46.934 17.308C47.246 17.5853 47.402 17.9493 47.402 18.4C47.402 18.7813 47.246 19.1193 46.934 19.414C46.6393 19.7087 46.2667 19.856 45.816 19.856H39.966L40.2 19.622V25.914C40.2 26.3647 40.0353 26.746 39.706 27.058C39.394 27.3527 39.0213 27.5 38.588 27.5ZM54.7476 25.914C54.7476 26.3647 54.6003 26.746 54.3056 27.058C54.0109 27.3527 53.6383 27.5 53.1876 27.5C52.7369 27.5 52.3643 27.3527 52.0696 27.058C51.7749 26.746 51.6276 26.3647 51.6276 25.914V15.176C51.6276 14.7253 51.7749 14.3527 52.0696 14.058C52.3643 13.746 52.7369 13.59 53.1876 13.59C53.6383 13.59 54.0109 13.746 54.3056 14.058C54.6003 14.3527 54.7476 14.7253 54.7476 15.176V25.914ZM53.1616 11.9C52.5723 11.9 52.1563 11.8047 51.9136 11.614C51.6709 11.4233 51.5496 11.0853 51.5496 10.6V10.106C51.5496 9.60333 51.6796 9.26533 51.9396 9.092C52.2169 8.90133 52.6329 8.806 53.1876 8.806C53.7943 8.806 54.2189 8.90133 54.4616 9.092C54.7043 9.28267 54.8256 9.62067 54.8256 10.106V10.6C54.8256 11.1027 54.6956 11.4493 54.4356 11.64C54.1756 11.8133 53.7509 11.9 53.1616 11.9ZM64.2461 13.33C64.9741 13.33 65.6415 13.4427 66.2481 13.668C66.8548 13.8933 67.3748 14.1793 67.8081 14.526C68.2588 14.8727 68.6055 15.228 68.8481 15.592C69.1081 15.9387 69.2381 16.2333 69.2381 16.476L68.5621 16.814V14.916C68.5621 14.4653 68.7095 14.0927 69.0041 13.798C69.2988 13.486 69.6715 13.33 70.1221 13.33C70.5728 13.33 70.9455 13.4773 71.2401 13.772C71.5348 14.0667 71.6821 14.448 71.6821 14.916V26.486C71.6821 27.994 71.3528 29.1987 70.6941 30.1C70.0528 31.0187 69.2035 31.6773 68.1461 32.076C67.0888 32.492 65.9535 32.7 64.7401 32.7C64.3935 32.7 63.9428 32.6567 63.3881 32.57C62.8335 32.4833 62.3048 32.3793 61.8021 32.258C61.2995 32.1367 60.9181 32.024 60.6581 31.92C60.1381 31.6947 59.7741 31.4087 59.5661 31.062C59.3755 30.7327 59.3408 30.3773 59.4621 29.996C59.6181 29.4933 59.8695 29.1467 60.2161 28.956C60.5628 28.7827 60.9268 28.7653 61.3081 28.904C61.4815 28.956 61.7675 29.06 62.1661 29.216C62.5648 29.372 62.9981 29.5107 63.4661 29.632C63.9515 29.7707 64.3761 29.84 64.7401 29.84C66.0401 29.84 67.0021 29.58 67.6261 29.06C68.2501 28.54 68.5621 27.8207 68.5621 26.902V24.64L68.8741 24.874C68.8741 25.0993 68.7528 25.3767 68.5101 25.706C68.2848 26.018 67.9641 26.33 67.5481 26.642C67.1495 26.954 66.6728 27.2227 66.1181 27.448C65.5635 27.656 64.9741 27.76 64.3501 27.76C63.1195 27.76 62.0101 27.4567 61.0221 26.85C60.0341 26.226 59.2541 25.3767 58.6821 24.302C58.1101 23.21 57.8241 21.962 57.8241 20.558C57.8241 19.1367 58.1101 17.8887 58.6821 16.814C59.2541 15.722 60.0255 14.8727 60.9961 14.266C61.9668 13.642 63.0501 13.33 64.2461 13.33ZM64.7401 16.19C63.9601 16.19 63.2755 16.3807 62.6861 16.762C62.0968 17.1433 61.6375 17.6633 61.3081 18.322C60.9788 18.9807 60.8141 19.726 60.8141 20.558C60.8141 21.3727 60.9788 22.1093 61.3081 22.768C61.6375 23.4267 62.0968 23.9467 62.6861 24.328C63.2755 24.7093 63.9601 24.9 64.7401 24.9C65.5375 24.9 66.2308 24.7093 66.8201 24.328C67.4095 23.9467 67.8688 23.4267 68.1981 22.768C68.5275 22.1093 68.6921 21.3727 68.6921 20.558C68.6921 19.726 68.5275 18.9807 68.1981 18.322C67.8688 17.6633 67.4095 17.1433 66.8201 16.762C66.2308 16.3807 65.5375 16.19 64.7401 16.19ZM82.8802 13.33C84.2669 13.33 85.2896 13.668 85.9482 14.344C86.6069 15.0027 87.0402 15.8607 87.2482 16.918L86.8062 16.684L87.0142 16.268C87.2222 15.8693 87.5429 15.4447 87.9762 14.994C88.4096 14.526 88.9296 14.136 89.5362 13.824C90.1602 13.4947 90.8536 13.33 91.6162 13.33C92.8642 13.33 93.8089 13.5987 94.4502 14.136C95.1089 14.6733 95.5596 15.3927 95.8022 16.294C96.0449 17.178 96.1662 18.166 96.1662 19.258V25.914C96.1662 26.3647 96.0189 26.746 95.7242 27.058C95.4296 27.3527 95.0569 27.5 94.6062 27.5C94.1556 27.5 93.7829 27.3527 93.4882 27.058C93.1936 26.746 93.0462 26.3647 93.0462 25.914V19.258C93.0462 18.686 92.9769 18.1747 92.8382 17.724C92.6996 17.256 92.4482 16.8833 92.0842 16.606C91.7202 16.3287 91.2002 16.19 90.5242 16.19C89.8656 16.19 89.3022 16.3287 88.8342 16.606C88.3662 16.8833 88.0109 17.256 87.7682 17.724C87.5429 18.1747 87.4302 18.686 87.4302 19.258V25.914C87.4302 26.3647 87.2829 26.746 86.9882 27.058C86.6936 27.3527 86.3209 27.5 85.8702 27.5C85.4196 27.5 85.0469 27.3527 84.7522 27.058C84.4576 26.746 84.3102 26.3647 84.3102 25.914V19.258C84.3102 18.686 84.2409 18.1747 84.1022 17.724C83.9636 17.256 83.7122 16.8833 83.3482 16.606C82.9842 16.3287 82.4642 16.19 81.7882 16.19C81.1296 16.19 80.5662 16.3287 80.0982 16.606C79.6302 16.8833 79.2749 17.256 79.0322 17.724C78.8069 18.1747 78.6942 18.686 78.6942 19.258V25.914C78.6942 26.3647 78.5469 26.746 78.2522 27.058C77.9576 27.3527 77.5849 27.5 77.1342 27.5C76.6836 27.5 76.3109 27.3527 76.0162 27.058C75.7216 26.746 75.5742 26.3647 75.5742 25.914V15.176C75.5742 14.7253 75.7216 14.3527 76.0162 14.058C76.3109 13.746 76.6836 13.59 77.1342 13.59C77.5849 13.59 77.9576 13.746 78.2522 14.058C78.5469 14.3527 78.6942 14.7253 78.6942 15.176V16.294L78.3042 16.216C78.4602 15.9213 78.6769 15.6093 78.9542 15.28C79.2316 14.9333 79.5696 14.6127 79.9682 14.318C80.3669 14.0233 80.8089 13.7893 81.2942 13.616C81.7796 13.4253 82.3082 13.33 82.8802 13.33ZM111.451 13.33C111.902 13.33 112.274 13.4773 112.569 13.772C112.864 14.0667 113.011 14.448 113.011 14.916V25.914C113.011 26.3647 112.864 26.746 112.569 27.058C112.274 27.3527 111.902 27.5 111.451 27.5C111 27.5 110.628 27.3527 110.333 27.058C110.038 26.746 109.891 26.3647 109.891 25.914V24.64L110.463 24.874C110.463 25.0993 110.342 25.3767 110.099 25.706C109.856 26.018 109.527 26.33 109.111 26.642C108.695 26.954 108.201 27.2227 107.629 27.448C107.074 27.656 106.468 27.76 105.809 27.76C104.613 27.76 103.53 27.4567 102.559 26.85C101.588 26.226 100.817 25.3767 100.245 24.302C99.6903 23.21 99.413 21.962 99.413 20.558C99.413 19.1367 99.6903 17.8887 100.245 16.814C100.817 15.722 101.58 14.8727 102.533 14.266C103.486 13.642 104.544 13.33 105.705 13.33C106.45 13.33 107.135 13.4427 107.759 13.668C108.383 13.8933 108.92 14.1793 109.371 14.526C109.839 14.8727 110.194 15.228 110.437 15.592C110.697 15.9387 110.827 16.2333 110.827 16.476L109.891 16.814V14.916C109.891 14.4653 110.038 14.0927 110.333 13.798C110.628 13.486 111 13.33 111.451 13.33ZM106.199 24.9C106.962 24.9 107.629 24.7093 108.201 24.328C108.773 23.9467 109.215 23.4267 109.527 22.768C109.856 22.1093 110.021 21.3727 110.021 20.558C110.021 19.726 109.856 18.9807 109.527 18.322C109.215 17.6633 108.773 17.1433 108.201 16.762C107.629 16.3807 106.962 16.19 106.199 16.19C105.454 16.19 104.795 16.3807 104.223 16.762C103.651 17.1433 103.2 17.6633 102.871 18.322C102.559 18.9807 102.403 19.726 102.403 20.558C102.403 21.3727 102.559 22.1093 102.871 22.768C103.2 23.4267 103.651 23.9467 104.223 24.328C104.795 24.7093 105.454 24.9 106.199 24.9Z" fill="white"/>
<g clip-path="url(#clip0_222_22)">
<path d="M0 28.8333C0 25.7037 2.46244 23.1666 5.5 23.1666H11V28.8333C11 31.9629 8.53756 34.5 5.5 34.5C2.46244 34.5 0 31.9629 0 28.8333Z" fill="#D9D9D9"/>
<path d="M11 0.5V11.8333H16.5C19.5376 11.8333 22 9.29627 22 6.16667C22 3.03706 19.5376 0.5 16.5 0.5H11Z" fill="#E5E5E5"/>
<path d="M16.4297 23.1667C19.4673 23.1667 21.9297 20.6297 21.9297 17.5C21.9297 14.3704 19.4673 11.8334 16.4297 11.8334C13.3921 11.8334 10.9297 14.3704 10.9297 17.5C10.9297 20.6297 13.3921 23.1667 16.4297 23.1667Z" fill="white"/>
<path d="M0 6.16667C0 9.29627 2.46244 11.8333 5.5 11.8333H11V0.5H5.5C2.46244 0.5 0 3.03706 0 6.16667Z" fill="white"/>
<path d="M0 17.5C0 20.6296 2.46244 23.1667 5.5 23.1667H11V11.8334H5.5C2.46244 11.8334 0 14.3704 0 17.5Z" fill="white"/>
</g>
<defs>
<clipPath id="clip0_222_22">
<rect width="22" height="34" fill="white" transform="translate(0 0.5)"/>
</clipPath>
</defs>
</svg>
