<svg width="111" height="35" viewBox="0 0 111 35" fill="none" xmlns="http://www.w3.org/2000/svg">
<path d="M50.4 18.3V25.5H47.04V8.7H50.4V15.42H57V8.7H60.36V25.5H57V18.3H50.4ZM71.3666 11.58V25.5H68.0066V11.58H63.4706V8.7H75.9026V11.58H71.3666ZM93.1672 25.5V14.412H93.1193L89.3272 25.5H86.1352L82.3192 14.268H82.2712V25.5H79.0312V8.7H83.4952L87.7192 21.06H87.7672L91.9672 8.7H96.4072V25.5H93.1672ZM100.957 25.5V8.7H104.317V22.62H110.053V25.5H100.957Z" fill="white"/>
<path d="M31.4077 0.266427C31.2652 0.109084 31.0603 0.0200195 30.8466 0.0200195H1.15315C0.939403 0.0200195 0.734561 0.109084 0.592061 0.266427C0.446589 0.423769 0.375339 0.634555 0.396125 0.848305L3.07097 30.8119C3.09769 31.1266 3.31737 31.3878 3.62019 31.4769L15.7891 34.9503C15.8544 34.9711 15.9257 34.98 15.9969 34.98C16.0682 34.98 16.1364 34.9711 16.2047 34.9503L28.3825 31.4769C28.6854 31.3878 28.9021 31.1266 28.9318 30.8119L31.6036 0.848305C31.6244 0.634555 31.5531 0.423769 31.4077 0.266427ZM25.0041 10.5977H10.7066L11.048 14.466H24.6597L23.6385 25.8986L15.9939 28.2083L15.9197 28.1845L8.36425 25.8956L7.95159 21.2377H11.6536L11.8139 23.0456L16.0385 23.9303L20.1858 23.0456L20.6281 18.1531H7.67549L6.66908 6.90158H25.3336L25.0041 10.5977Z" fill="white"/>
</svg>
