<svg width="173" height="33" viewBox="0 0 173 33" fill="none" xmlns="http://www.w3.org/2000/svg">
<path d="M53.1702 21.24V7.2H56.5302V22.512L53.7462 24.12H48.6342L45.8502 22.512V17.88H49.2102V21.24H53.1702ZM63.6564 19.272V21.36H67.0404V19.272H63.6564ZM63.1524 24.12L60.3684 22.512V18.36L63.1524 16.752H67.0404V14.808H61.5684V12H67.5444L70.3284 13.608V24.12H68.7444L67.0404 23.136L65.3364 24.12H63.1524ZM76.2545 12L79.0145 19.872H79.0625L81.8465 12H85.1345L80.6945 24H77.4065L72.9665 12H76.2545ZM90.5851 19.272V21.36H93.9691V19.272H90.5851ZM90.0811 24.12L87.2971 22.512V18.36L90.0811 16.752H93.9691V14.808H88.4971V12H94.4731L97.2571 13.608V24.12H95.6731L93.9691 23.136L92.2651 24.12H90.0811ZM101.575 15.48V8.688L104.359 7.08H110.431L113.215 8.688V11.88H109.855V9.96H104.935V13.968H110.431L113.215 15.576V22.512L110.431 24.12H104.119L101.335 22.512V19.32H104.695V21.24H109.855V17.088H104.359L101.575 15.48ZM120.83 14.808V21.192H126.782V24H120.326L117.542 22.392V13.608L120.326 12H126.782V14.808H120.83ZM137.789 14.808H133.661V24H130.373V12H133.085L133.661 12.984L135.365 12H137.789V14.808ZM143.962 12V24H140.674V12H143.962ZM140.554 9.768V6.48H144.082V9.768H140.554ZM156.18 24.12H153.036L151.332 23.136V28.8H148.044V11.88H150.756L151.332 12.864L153.036 11.88H156.18L158.964 13.488V22.512L156.18 24.12ZM151.332 14.688V21.312H155.676V14.688H151.332ZM162.096 14.808V12H164.304V9.984L167.592 8.088V12H170.232V14.808H167.592V21.192H170.232V24H167.088L164.304 22.392V14.808H162.096Z" fill="white"/>
<path d="M34.5173 0H2.34114C1.04888 0 0 0.932342 0 2.08102V30.679C0 31.8277 1.04888 32.76 2.34114 32.76H34.5139C35.8061 32.76 36.855 31.8277 36.855 30.682V2.08102C36.855 0.932342 35.8061 0 34.5173 0ZM20.1825 25.1032C20.1825 28.2201 18.1259 29.64 15.1232 29.64C12.4084 29.64 10.4512 28.0221 9.65251 26.52L12.4118 25.0362C12.9431 25.8741 13.7521 26.52 14.9175 26.52C16.0315 26.52 16.6725 26.133 16.6725 24.6279V14.82H20.1825L20.1825 25.1032ZM27.7955 29.64C24.6865 29.64 22.9213 28.2476 21.9375 26.52L24.57 24.96C25.2864 26.002 26.0679 26.9984 27.7201 26.9984C29.1083 26.9984 29.835 26.3829 29.835 25.5298C29.835 24.5121 29.0809 24.1495 27.5556 23.5554L26.7192 23.2355C24.3026 22.3214 22.695 21.1758 22.695 18.7505C22.695 16.5202 24.6111 14.82 27.6001 14.82C29.7287 14.82 31.2575 15.4781 32.3612 17.2027L29.7562 18.6926C29.1803 17.7755 28.5633 17.4159 27.6001 17.4159C26.6198 17.4159 25.9994 17.9705 25.9994 18.6926C25.9994 19.5853 26.6198 19.9448 28.056 20.4994L28.8924 20.8193C31.7408 21.9009 33.345 23.007 33.345 25.4932C33.345 28.1714 30.9764 29.64 27.7955 29.64Z" fill="white"/>
</svg>
