<svg width="130" height="35" viewBox="0 0 130 35" fill="none" xmlns="http://www.w3.org/2000/svg">
<path d="M54.064 22.692C54.48 22.692 54.824 22.828 55.096 23.1C55.384 23.356 55.528 23.692 55.528 24.108C55.528 24.508 55.384 24.844 55.096 25.116C54.824 25.372 54.48 25.5 54.064 25.5H46.264C45.848 25.5 45.496 25.364 45.208 25.092C44.936 24.804 44.8 24.452 44.8 24.036V10.164C44.8 9.748 44.944 9.404 45.232 9.132C45.52 8.844 45.888 8.7 46.336 8.7C46.72 8.7 47.056 8.844 47.344 9.132C47.648 9.404 47.8 9.748 47.8 10.164V23.1L47.272 22.692H54.064ZM68.0446 12.66C68.4606 12.66 68.8046 12.804 69.0766 13.092C69.3486 13.364 69.4846 13.708 69.4846 14.124V20.22C69.4846 21.916 69.0126 23.26 68.0686 24.252C67.1246 25.244 65.7646 25.74 63.9886 25.74C62.2126 25.74 60.8526 25.244 59.9086 24.252C58.9806 23.26 58.5166 21.916 58.5166 20.22V14.124C58.5166 13.708 58.6526 13.364 58.9246 13.092C59.1966 12.804 59.5406 12.66 59.9566 12.66C60.3726 12.66 60.7166 12.804 60.9886 13.092C61.2606 13.364 61.3966 13.708 61.3966 14.124V20.22C61.3966 21.196 61.6126 21.924 62.0446 22.404C62.4766 22.868 63.1246 23.1 63.9886 23.1C64.8686 23.1 65.5246 22.868 65.9566 22.404C66.3886 21.924 66.6046 21.196 66.6046 20.22V14.124C66.6046 13.708 66.7406 13.364 67.0126 13.092C67.2846 12.804 67.6286 12.66 68.0446 12.66ZM78.7945 12.42C79.7065 12.42 80.4985 12.516 81.1705 12.708C81.8585 12.9 82.3865 13.172 82.7545 13.524C83.1385 13.86 83.3305 14.268 83.3305 14.748C83.3305 15.068 83.2345 15.372 83.0425 15.66C82.8505 15.932 82.5705 16.068 82.2025 16.068C81.9465 16.068 81.7305 16.036 81.5545 15.972C81.3945 15.892 81.2505 15.796 81.1225 15.684C80.9945 15.572 80.8425 15.468 80.6665 15.372C80.5065 15.276 80.2585 15.204 79.9225 15.156C79.6025 15.092 79.3625 15.06 79.2025 15.06C78.3865 15.06 77.6905 15.236 77.1145 15.588C76.5545 15.94 76.1225 16.42 75.8185 17.028C75.5145 17.62 75.3625 18.308 75.3625 19.092C75.3625 19.86 75.5145 20.548 75.8185 21.156C76.1385 21.748 76.5705 22.22 77.1145 22.572C77.6745 22.924 78.3145 23.1 79.0345 23.1C79.4345 23.1 79.7785 23.076 80.0665 23.028C80.3545 22.98 80.5945 22.908 80.7865 22.812C81.0105 22.684 81.2105 22.548 81.3865 22.404C81.5625 22.26 81.8265 22.188 82.1785 22.188C82.5945 22.188 82.9145 22.324 83.1385 22.596C83.3625 22.852 83.4745 23.172 83.4745 23.556C83.4745 23.956 83.2505 24.324 82.8025 24.66C82.3545 24.98 81.7625 25.244 81.0265 25.452C80.3065 25.644 79.5225 25.74 78.6745 25.74C77.4105 25.74 76.3145 25.452 75.3865 24.876C74.4585 24.284 73.7385 23.484 73.2265 22.476C72.7305 21.468 72.4825 20.34 72.4825 19.092C72.4825 17.78 72.7465 16.628 73.2745 15.636C73.8185 14.628 74.5625 13.844 75.5065 13.284C76.4665 12.708 77.5625 12.42 78.7945 12.42ZM88.7432 24.036C88.7432 24.452 88.6072 24.804 88.3352 25.092C88.0632 25.364 87.7192 25.5 87.3032 25.5C86.8872 25.5 86.5432 25.364 86.2712 25.092C85.9992 24.804 85.8632 24.452 85.8632 24.036V14.124C85.8632 13.708 85.9992 13.364 86.2712 13.092C86.5432 12.804 86.8872 12.66 87.3032 12.66C87.7192 12.66 88.0632 12.804 88.3352 13.092C88.6072 13.364 88.7432 13.708 88.7432 14.124V24.036ZM87.2792 11.1C86.7352 11.1 86.3512 11.012 86.1272 10.836C85.9032 10.66 85.7912 10.348 85.7912 9.9V9.444C85.7912 8.98 85.9112 8.668 86.1512 8.508C86.4072 8.332 86.7912 8.244 87.3032 8.244C87.8632 8.244 88.2552 8.332 88.4792 8.508C88.7032 8.684 88.8152 8.996 88.8152 9.444V9.9C88.8152 10.364 88.6952 10.684 88.4552 10.86C88.2152 11.02 87.8232 11.1 87.2792 11.1ZM102.695 7.74C103.111 7.74 103.455 7.876 103.727 8.148C103.999 8.42 104.135 8.772 104.135 9.204V24.036C104.135 24.452 103.999 24.804 103.727 25.092C103.455 25.364 103.111 25.5 102.695 25.5C102.279 25.5 101.935 25.364 101.663 25.092C101.391 24.804 101.255 24.452 101.255 24.036V22.86L101.783 23.076C101.783 23.284 101.671 23.54 101.447 23.844C101.223 24.132 100.919 24.42 100.535 24.708C100.151 24.996 99.6951 25.244 99.1671 25.452C98.6551 25.644 98.0951 25.74 97.4871 25.74C96.3831 25.74 95.3831 25.46 94.4871 24.9C93.5911 24.324 92.8791 23.54 92.3511 22.548C91.8391 21.54 91.5831 20.388 91.5831 19.092C91.5831 17.78 91.8391 16.628 92.3511 15.636C92.8791 14.628 93.5831 13.844 94.4631 13.284C95.3431 12.708 96.3191 12.42 97.3911 12.42C98.0791 12.42 98.7111 12.524 99.2871 12.732C99.8631 12.94 100.359 13.204 100.775 13.524C101.207 13.844 101.535 14.172 101.759 14.508C101.999 14.828 102.119 15.1 102.119 15.324L101.255 15.636V9.204C101.255 8.788 101.391 8.444 101.663 8.172C101.935 7.884 102.279 7.74 102.695 7.74ZM97.8471 23.1C98.5511 23.1 99.1671 22.924 99.6951 22.572C100.223 22.22 100.631 21.74 100.919 21.132C101.223 20.524 101.375 19.844 101.375 19.092C101.375 18.324 101.223 17.636 100.919 17.028C100.631 16.42 100.223 15.94 99.6951 15.588C99.1671 15.236 98.5511 15.06 97.8471 15.06C97.1591 15.06 96.5511 15.236 96.0231 15.588C95.4951 15.94 95.0791 16.42 94.7751 17.028C94.4871 17.636 94.3431 18.324 94.3431 19.092C94.3431 19.844 94.4871 20.524 94.7751 21.132C95.0791 21.74 95.4951 22.22 96.0231 22.572C96.5511 22.924 97.1591 23.1 97.8471 23.1ZM113.781 25.74C112.421 25.74 111.237 25.46 110.229 24.9C109.237 24.324 108.469 23.548 107.925 22.572C107.397 21.596 107.133 20.492 107.133 19.26C107.133 17.82 107.421 16.596 107.997 15.588C108.589 14.564 109.357 13.78 110.301 13.236C111.245 12.692 112.245 12.42 113.301 12.42C114.117 12.42 114.885 12.588 115.605 12.924C116.341 13.26 116.989 13.724 117.549 14.316C118.109 14.892 118.549 15.564 118.869 16.332C119.205 17.1 119.373 17.916 119.373 18.78C119.357 19.164 119.205 19.476 118.917 19.716C118.629 19.956 118.293 20.076 117.909 20.076H108.741L108.021 17.676H116.829L116.301 18.156V17.508C116.269 17.044 116.101 16.628 115.797 16.26C115.509 15.892 115.141 15.604 114.693 15.396C114.261 15.172 113.797 15.06 113.301 15.06C112.821 15.06 112.373 15.124 111.957 15.252C111.541 15.38 111.181 15.596 110.877 15.9C110.573 16.204 110.333 16.612 110.157 17.124C109.981 17.636 109.893 18.284 109.893 19.068C109.893 19.932 110.069 20.668 110.421 21.276C110.789 21.868 111.253 22.324 111.813 22.644C112.389 22.948 112.997 23.1 113.637 23.1C114.229 23.1 114.701 23.052 115.053 22.956C115.405 22.86 115.685 22.748 115.893 22.62C116.117 22.476 116.317 22.356 116.493 22.26C116.781 22.116 117.053 22.044 117.309 22.044C117.661 22.044 117.949 22.164 118.173 22.404C118.413 22.644 118.533 22.924 118.533 23.244C118.533 23.676 118.309 24.068 117.861 24.42C117.445 24.772 116.861 25.084 116.109 25.356C115.357 25.612 114.581 25.74 113.781 25.74Z" fill="white"/>
<path d="M19.8333 17.5C19.8333 14.3704 17.2962 11.8333 14.1667 11.8333C11.0371 11.8333 8.5 14.3704 8.5 17.5C8.5 23.7593 13.5741 28.8333 19.8333 28.8333C26.0926 28.8333 31.1667 23.7593 31.1667 17.5C31.1667 12.4652 28.9779 7.94155 25.5 4.82874" stroke="white" stroke-width="2" stroke-linecap="round" stroke-linejoin="round"/>
<path d="M14.1663 17.5C14.1663 20.6295 16.7034 23.1666 19.833 23.1666C22.9626 23.1666 25.4997 20.6295 25.4997 17.5C25.4997 11.2407 20.4256 6.16663 14.1663 6.16663C7.90711 6.16663 2.83301 11.2407 2.83301 17.5C2.83301 22.5774 5.05897 27.135 8.58826 30.25" stroke="white" stroke-opacity="0.6" stroke-width="2" stroke-linecap="round" stroke-linejoin="round"/>
</svg>
