<svg width="100" height="29" viewBox="0 0 100 29" fill="none" xmlns="http://www.w3.org/2000/svg">
<path d="M62.3359 0.820013C61.3984 0.807825 60.5781 0.994702 60.1563 1.53501C59.4375 2.44095 61.2266 3.32658 61.8672 3.7897C62.3125 4.11064 62.8906 4.4722 63.211 4.83377C63.4219 5.07346 63.4531 5.31315 63.6328 5.56502C64.0782 6.18659 64.7891 6.89346 65.3594 7.47033C65.6485 7.76283 65.9688 8.06752 66.336 8.32752C66.5625 8.48596 66.9454 8.55909 67.0079 8.80283C66.6329 9.07909 66.6094 9.50565 66.3985 9.85502C65.4454 11.4191 65.8047 13.365 67.1875 14.5188C67.6172 14.8763 68.625 15.636 70 15.3475C71.2031 15.0916 70.9375 14.2994 71.2813 13.5966C71.3594 13.4422 71.3125 13.3244 71.4688 13.2188V13.2513C71.8282 13.6332 72.1953 14.015 72.5625 14.3929C73.3829 15.0754 74.8282 15.7863 76.0469 16.2697C76.6797 16.5175 77.1797 16.9482 78 17.0944V17.0619H77.9375C77.7813 16.9319 77.5313 16.8791 77.3282 16.7775C76.8516 16.5338 76.3203 16.2291 75.9297 15.9488C74.8125 15.1647 73.8282 14.3035 72.9375 13.4097C72.5079 12.9832 72.1329 12.5119 71.7735 12.0772C71.6329 11.9066 71.6329 11.6547 71.3438 11.5654C70.9454 11.8863 70.3672 12.1422 70.0626 12.52C69.5782 13.1213 69.5079 13.8566 69.3282 14.6163C69.2188 14.6366 69.2657 14.6204 69.211 14.6488C68.3594 14.5391 68.0548 14.0841 67.7423 13.6941C66.9454 12.7069 66.7891 11.1144 67.5001 9.98099C67.6798 9.68442 68.5001 8.75818 68.172 8.48599C68.0157 8.2138 67.4845 8.05942 67.1954 7.85224C66.8282 7.59631 66.4688 7.25912 66.2188 6.96255C65.5626 6.19068 64.9454 5.29693 64.2501 4.51693C63.922 4.14319 63.3673 3.76943 62.9064 3.43631C62.3985 3.07069 61.836 2.80257 61.4376 2.35569C61.3048 2.20131 61.1095 1.94944 61.3204 1.78694C61.3829 1.67725 61.4767 1.63257 61.6876 1.59601C62.0392 1.45382 63.0236 1.6407 63.3986 1.72194C64.3751 1.9332 65.1954 2.13632 66.0236 2.4207C66.422 2.55882 66.8204 2.82289 67.3048 2.90008H67.8517C68.7189 3.00164 69.6798 2.92851 70.4767 3.05851C71.8986 3.28194 73.172 3.63132 74.3205 4.00913C77.8439 5.16289 80.7267 6.8082 82.6876 8.77039C83.008 9.08727 83.1486 9.39195 83.4298 9.72507C83.9845 10.3995 84.6954 11.0982 85.2579 11.7563C85.8126 12.4185 86.3595 13.0807 87.1486 13.6291C87.5626 13.9176 89.172 14.076 89.8986 14.2345C90.4064 14.3482 91.2501 14.466 91.7267 14.6163C92.6564 14.9048 93.547 15.2501 94.4142 15.571C94.8517 15.7295 96.1798 16.0748 96.2501 16.3632C94.1017 16.3348 92.4611 16.4363 91.0626 16.7451C90.6642 16.8345 90.0236 16.8345 89.9611 17.0945C90.172 17.2123 90.2111 17.391 90.3829 17.5373C90.7189 17.8176 91.2814 18.1954 91.7892 18.3945C92.3439 18.6098 92.9064 18.8413 93.5001 19.0323C94.547 19.3613 95.7189 19.5523 96.7345 19.8854C97.3283 20.0845 97.9298 20.3323 98.508 20.5517C98.797 20.6654 98.9845 20.836 99.3595 20.9051V20.8726C99.1642 20.7426 99.1173 20.5638 98.9376 20.4298L98.133 20.0113C97.3595 19.4792 96.3751 19.0079 95.3283 18.6179C94.4923 18.3051 92.6252 17.8826 92.2814 17.3788L92.2189 17.3463C92.8048 17.3138 93.5002 17.2001 94.047 17.1229C94.9689 16.997 95.7814 17.0295 96.7267 16.9035C97.1564 16.8385 97.5861 16.7735 98.0158 16.7126V16.5826C97.5392 16.3307 97.1954 15.9895 96.672 15.7579C95.3048 15.1526 93.8127 14.5473 92.2736 14.0435C91.422 13.7632 90.3673 13.5804 89.4689 13.3448C89.1642 13.2635 88.633 13.2229 88.4298 13.0889C87.9533 12.776 87.6955 12.3779 87.3283 12.0123C86.5627 11.2445 85.8127 10.4076 85.133 9.59916C84.672 9.05073 84.3673 8.50635 83.7892 8.01073C81.0158 5.6423 78.0314 4.20823 73.4064 2.80261C72.422 2.50198 71.2423 2.38823 69.9923 2.23386C69.3127 2.20948 68.6486 2.18917 67.9689 2.16886C67.5627 2.07948 67.133 1.81948 66.7502 1.68948C65.7892 1.37667 63.8984 0.832202 62.3359 0.820013ZM68.9531 4.26501C68.5078 4.26095 68.1875 4.29345 67.8516 4.33001V4.36251H67.9141C68.125 4.59001 68.5078 4.73627 68.7734 4.93127C68.9766 5.1547 69.1719 5.37815 69.375 5.60158L69.4375 5.56908C69.8125 5.43096 69.9922 5.20751 69.9922 4.87033C69.8359 4.78909 69.8125 4.68346 69.6875 4.58596C69.5078 4.45189 69.1719 4.37876 68.9531 4.26501ZM3.73439 17.4559C3.13283 17.4681 2.47657 17.5291 1.76563 17.6469C0.578128 17.8338 -0.0078125 18.2034 -0.0078125 18.955V26.82H4.00001V19.1459L9.55469 25.7069C10.2422 26.5234 11.1797 26.8159 13.0156 26.8159C14.8594 26.8159 15.7578 26.5234 16.4453 25.7069L22 19.3125V26.82H26V18.955C26 18.2034 25.4219 17.8337 24.2265 17.6469C21.3828 17.1797 19.4687 17.5819 18.6094 18.5934L12.9062 25.2641L7.39063 18.5934C6.76563 17.8337 5.51563 17.4194 3.73439 17.4559ZM52.4922 17.46C50.9141 17.46 46 17.5575 46 19.54V20.8238C46 21.7338 47.5391 22.4772 50.875 22.66C51.25 22.6722 51.625 22.6885 52 22.6885C52 22.6885 55.8906 22.6478 56 22.66C58.25 22.66 58 23.57 58 23.7V24.74C58 24.8822 57.9375 25.78 55.9766 25.78H46V26.82H56.0156C57.3281 26.82 58.6016 26.6778 59.6172 26.43C61.3047 26.0278 62 25.4835 62 24.7685V23.2816C62 21.685 58.1875 21.62 56 21.62H52C50.4297 21.62 50.1875 21.1244 50 20.58V19.54C50.1875 19.1256 50.5391 18.565 51.9297 18.5H62V17.46H52.4922ZM67.9609 17.46C65.0078 17.6713 63.9688 18.435 63.9688 19.54V24.74C63.9688 25.7516 65.0547 26.3609 67.2891 26.6778C68.0391 26.7875 68.7188 26.8322 69.3594 26.8322L73.8125 26.82H76.4297L78.6563 27.86H83.1563L80.0625 26.4097C81.5156 26.0969 81.9688 25.6175 81.9688 24.7197V19.54C81.9688 18.435 80.586 17.6713 77.6329 17.46H67.9609ZM84 17.46V24.6953C84 25.9506 85.3672 26.6575 88.9844 26.7997C89.3203 26.8078 89.6641 26.82 90 26.82H100V25.78H90.7578C88.6953 25.78 88 25.3291 88 24.6872V17.46H84ZM70.3438 18.5H75.4922C76.8516 18.5 77.7656 19.0688 77.9688 19.54C77.9688 19.54 78 24.3825 78 24.74C78 25.0975 77.6172 25.26 77.6172 25.26L76.5313 24.74H72L74.2266 25.78H70.3438C68.9531 25.78 68.1719 25.2438 67.9688 24.74V19.6456C67.9688 19.0931 68.7813 18.5 70.3438 18.5ZM28 20.58C28.0781 20.6206 28 25.0122 28 25.0975C28.0313 26.0075 30.25 26.8038 33.7266 26.82H40V26.8891C40 27.0841 40.2734 27.7341 38 27.86C37.9766 27.86 28.0234 27.86 28 27.86V28.9H38.4297C40.1953 28.8716 44.0234 28.6644 44 27.0719C44 27.0435 44.0156 20.58 44 20.58H40V25.78C39.9375 25.78 35.0469 25.7881 34.0625 25.78C32.1328 25.7638 31.9688 25.1909 32 24.9716V20.58H28Z" fill="white"/>
</svg>
