<svg width="146" height="29" viewBox="0 0 146 29" fill="none" xmlns="http://www.w3.org/2000/svg">
<g clip-path="url(#clip0_126_18)">
<path d="M97.0566 0.012085H122.487V4.66197H112.399V29.1244H107.355V4.66197H97.0566V0.012085Z" fill="white"/>
<path d="M55.2323 0.012085V4.66197H34.8479V12.1422H51.241V16.7921H34.8479V24.4745H55.2323V29.1244H29.8039V4.66197H29.8018V0.012085H55.2323Z" fill="white"/>
<path d="M67.9312 0.024292H61.3301L84.9739 29.1366H91.5943L79.7709 14.5905L91.5754 0.0465028L84.9739 0.0566088L76.4659 10.5243L67.9312 0.024292Z" fill="white"/>
<path d="M74.7044 20.8194L71.3986 16.7477L61.3105 29.1588H67.9306L74.7044 20.8194Z" fill="white"/>
<path fill-rule="evenodd" clip-rule="evenodd" d="M29.9808 29.1244L6.30509 0H0V29.1123H5.04408V6.22274L23.6441 29.1244H29.9808Z" fill="white"/>
<path d="M123.621 28.9467C123.251 28.9467 122.937 28.8199 122.674 28.5664C122.411 28.3128 122.281 28.0059 122.284 27.6422C122.281 27.2886 122.411 26.985 122.674 26.7314C122.937 26.4779 123.251 26.3511 123.621 26.3511C123.976 26.3511 124.287 26.4779 124.55 26.7314C124.817 26.985 124.95 27.2886 124.954 27.6422C124.95 27.8824 124.889 28.1026 124.766 28.2994C124.639 28.4996 124.479 28.6565 124.277 28.7699C124.078 28.8867 123.86 28.9467 123.621 28.9467Z" fill="white"/>
<path d="M132.23 16.6825H134.465V25.2134C134.462 25.9974 134.29 26.668 133.956 27.2318C133.617 27.7957 133.149 28.226 132.548 28.5296C131.95 28.8299 131.249 28.9834 130.453 28.9834C129.724 28.9834 129.072 28.8532 128.491 28.5997C127.91 28.3461 127.448 27.9658 127.11 27.4654C126.768 26.9649 126.601 26.341 126.601 25.5937H128.84C128.843 25.9207 128.918 26.2042 129.061 26.4411C129.205 26.678 129.403 26.8581 129.656 26.9849C129.912 27.1117 130.206 27.1751 130.538 27.1751C130.897 27.1751 131.204 27.1017 131.454 26.9515C131.703 26.8047 131.895 26.5846 132.028 26.291C132.158 26.0007 132.226 25.6404 132.23 25.2134V16.6825Z" fill="white"/>
<path d="M143.662 20.0188C143.608 19.5017 143.368 19.098 142.951 18.8111C142.531 18.5208 141.987 18.3774 141.321 18.3774C140.853 18.3774 140.45 18.4474 140.115 18.5842C139.78 18.7243 139.52 18.9111 139.342 19.148C139.165 19.3849 139.076 19.6552 139.069 19.9588C139.069 20.2123 139.13 20.4325 139.25 20.616C139.369 20.8028 139.53 20.9596 139.739 21.0864C139.943 21.2165 140.172 21.3233 140.422 21.41C140.675 21.4968 140.928 21.5702 141.181 21.6302L142.346 21.9138C142.815 22.0206 143.269 22.1641 143.703 22.3475C144.137 22.5277 144.53 22.7579 144.875 23.0348C145.221 23.3117 145.494 23.6453 145.696 24.0357C145.897 24.426 146 24.8831 146 25.4102C146 26.1208 145.815 26.7447 145.443 27.2852C145.07 27.8223 144.534 28.2427 143.829 28.5463C143.129 28.8466 142.281 29.0001 141.283 29.0001C140.32 29.0001 139.479 28.8533 138.771 28.5597C138.061 28.2694 137.507 27.8424 137.107 27.2819C136.707 26.7214 136.492 26.0374 136.461 25.2334H138.676C138.707 25.6537 138.843 26.0041 139.076 26.2877C139.311 26.5679 139.619 26.7748 139.995 26.9149C140.374 27.0517 140.798 27.1217 141.266 27.1217C141.755 27.1217 142.186 27.0483 142.558 26.9049C142.927 26.7614 143.218 26.5613 143.426 26.301C143.638 26.0441 143.744 25.7405 143.748 25.3936C143.744 25.0766 143.648 24.813 143.464 24.6062C143.276 24.3993 143.016 24.2258 142.684 24.0857C142.35 23.9456 141.96 23.8188 141.516 23.7087L140.101 23.3551C139.079 23.0982 138.269 22.7079 137.677 22.1841C137.083 21.6603 136.789 20.9663 136.789 20.0956C136.789 19.3816 136.987 18.7544 137.387 18.2172C137.783 17.6801 138.327 17.2631 139.014 16.9661C139.704 16.6659 140.484 16.519 141.352 16.519C142.233 16.519 143.006 16.6659 143.672 16.9661C144.339 17.2631 144.862 17.6768 145.241 18.2039C145.62 18.731 145.819 19.3349 145.829 20.0188H143.662Z" fill="white"/>
</g>
<defs>
<clipPath id="clip0_126_18">
<rect width="146" height="29" fill="white"/>
</clipPath>
</defs>
</svg>
