<svg width="90" height="36" viewBox="0 0 90 36" fill="none" xmlns="http://www.w3.org/2000/svg">
<path d="M32.3991 13.705L23.3007 18.7391C22.9595 18.9263 22.75 19.2749 22.75 19.6513V29.725C22.75 30.1014 22.9595 30.4481 23.3007 30.6373L32.4009 35.675C32.7402 35.8623 33.1611 35.8623 33.5005 35.675L42.5989 30.6373C42.9363 30.4481 43.1458 30.1014 43.1458 29.725V19.6513C43.1458 19.2749 42.9363 18.9282 42.5951 18.7391L33.4986 13.705C33.328 13.6104 33.137 13.5641 32.9479 13.5641C32.7569 13.5641 32.5678 13.6104 32.3972 13.705M79.2112 22.7737L77.6945 23.6118C77.637 23.6433 77.6037 23.7008 77.6037 23.7639V25.4437C77.6037 25.5068 77.6389 25.5643 77.6945 25.5958L79.2112 26.4357C79.2687 26.4672 79.3373 26.4672 79.3948 26.4357L80.9115 25.5958C80.9671 25.5643 81.0024 25.5068 81.0024 25.4437V23.7639C81.0024 23.7008 80.9671 23.6433 80.9096 23.6118L79.3929 22.7737C79.3651 22.757 79.3336 22.7496 79.3021 22.7496C79.2706 22.7496 79.239 22.757 79.2112 22.7737Z" fill="#424242"/>
<path d="M66.7886 3.02865L62.359 0.557048C62.22 0.479173 62.0494 0.481027 61.9122 0.562611C61.775 0.644194 61.6897 0.790673 61.6897 0.950131L61.6878 15.8799L57.6031 13.6197C57.4325 13.5251 57.2415 13.4787 57.0524 13.4787C56.8633 13.4787 56.6723 13.5251 56.5017 13.6197H56.5036L47.4052 18.6537C47.064 18.841 46.8545 19.1896 46.8545 19.5641V29.6378C46.8545 30.0142 47.064 30.3609 47.4052 30.55L56.5054 35.5878C56.8447 35.7751 57.2656 35.7751 57.605 35.5878L66.7034 30.55C67.0408 30.3628 67.2503 30.0142 67.2503 29.6378V3.81482C67.2503 3.48849 67.0723 3.18811 66.7886 3.02865ZM61.4394 27.3071L57.3046 29.597C57.1507 29.6823 56.9597 29.6823 56.8058 29.597L52.6692 27.3071C52.5116 27.2218 52.417 27.0624 52.417 26.8918V22.312C52.417 22.1414 52.5116 21.9838 52.6673 21.8967L56.8039 19.6086C56.8818 19.566 56.9653 19.5456 57.0524 19.5456C57.1396 19.5456 57.2248 19.5678 57.3027 19.6086L61.4375 21.8967C61.5933 21.9838 61.6878 22.1433 61.6878 22.3138V26.8936C61.6878 27.0624 61.5933 27.2218 61.4394 27.3071Z" fill="#E5E5E5"/>
<path d="M32.3991 13.705L22.75 29.725C22.75 30.1014 22.9595 30.4481 23.3007 30.6373L32.4009 35.675C32.7403 35.8623 33.1611 35.8623 33.5005 35.675L43.1458 19.6513C43.1458 19.2749 42.9363 18.9282 42.5951 18.7391L33.4986 13.705C33.328 13.6104 33.137 13.5641 32.9479 13.5641C32.7569 13.5641 32.5678 13.6104 32.3972 13.705" fill="white" fill-opacity="0.6"/>
<path d="M32.3991 13.705L23.3007 18.7391C22.9595 18.9263 22.75 19.2749 22.75 19.6513L32.3991 35.675C32.7384 35.8623 33.1593 35.8623 33.4986 35.675L42.597 30.6373C42.9363 30.4481 43.1458 30.1014 43.1458 29.725L33.4986 13.705C33.328 13.6104 33.137 13.5641 32.9479 13.5641C32.7569 13.5641 32.5678 13.6104 32.3972 13.705" fill="#E5E5E5"/>
<path d="M88.9493 18.6537L79.8528 13.6197C79.6822 13.5251 79.4912 13.4788 79.3021 13.4788C79.113 13.4788 78.922 13.5251 78.7514 13.6197L69.6549 18.6537C69.3155 18.841 69.1042 19.197 69.1042 19.5864V29.6193C69.1042 30.0068 69.3155 30.3647 69.6549 30.5519L78.7551 35.5897C79.0963 35.7788 79.5135 35.7788 79.8546 35.5897L84.0506 33.2664C84.4344 33.0532 84.4326 32.5025 84.0469 32.2911L74.917 27.309C74.7631 27.2218 74.6667 27.0605 74.6667 26.8862V22.3139C74.6667 22.1433 74.7594 21.9857 74.9077 21.9041L79.0518 19.6123H79.0499C79.1278 19.5697 79.2131 19.5493 79.3002 19.5493C79.3874 19.5493 79.4727 19.5716 79.5505 19.6123L83.6946 21.9059C83.8429 21.9875 83.9356 22.1451 83.9356 22.3157V26.0463C83.9356 26.2058 84.0209 26.3541 84.16 26.4338C84.2991 26.5117 84.4696 26.5117 84.6087 26.432L89.055 23.8491C89.3294 23.6897 89.5 23.3948 89.5 23.0759V19.5901C89.5 19.1989 89.2886 18.841 88.9493 18.6537ZM20.3451 18.6537L11.2486 13.6197C11.078 13.5251 10.887 13.4788 10.6979 13.4788C10.5088 13.4788 10.3178 13.5251 10.1472 13.6197L1.05069 18.6537C0.711375 18.841 0.5 19.197 0.5 19.5864V33.4277C0.5 33.5872 0.585292 33.7355 0.724354 33.8153C0.863417 33.8931 1.034 33.8931 1.17306 33.8134L5.61935 31.2306C5.89377 31.0711 6.0625 30.7763 6.0625 30.4574V22.312C6.0625 22.1414 6.15521 21.9838 6.30354 21.9022L10.4476 19.6105C10.5255 19.5678 10.6108 19.5474 10.6979 19.5474C10.7851 19.5474 10.8704 19.5697 10.9482 19.6105L15.0923 21.9041C15.2406 21.9857 15.3333 22.1433 15.3333 22.3139V30.4592C15.3333 30.7781 15.5021 31.073 15.7783 31.2324L20.2246 33.8153C20.3637 33.895 20.5343 33.895 20.6733 33.8171C20.8105 33.7355 20.8958 33.5872 20.8958 33.4277V19.5882C20.8958 19.1989 20.6845 18.841 20.3451 18.6537Z" fill="#E5E5E5"/>
</svg>
