<svg width="69" height="38" viewBox="0 0 69 38" fill="none" xmlns="http://www.w3.org/2000/svg">
<mask id="mask0_126_263" style="mask-type:luminance" maskUnits="userSpaceOnUse" x="0" y="0" width="69" height="38">
<path d="M0.970703 19C0.970703 28.9462 15.9828 37.0094 34.5005 37.0094C53.0181 37.0094 68.0303 28.9462 68.0303 19C68.0303 9.05393 53.0181 0.990643 34.5005 0.990643C15.9828 0.990643 0.970703 9.05393 0.970703 19Z" fill="white"/>
</mask>
<g mask="url(#mask0_126_263)">
<path d="M0.970703 19C0.970703 28.9462 15.9828 37.0094 34.5005 37.0094C53.0181 37.0094 68.0303 28.9462 68.0303 19C68.0303 9.05393 53.0181 0.990643 34.5005 0.990643C15.9828 0.990643 0.970703 9.05393 0.970703 19Z" fill="url(#paint0_radial_126_263)"/>
</g>
<mask id="mask1_126_263" style="mask-type:luminance" maskUnits="userSpaceOnUse" x="-1" y="-2" width="71" height="42">
<path d="M-0.426758 -1.06012H69.4269V39.0601H-0.426758V-1.06012Z" fill="white"/>
</mask>
<g mask="url(#mask1_126_263)">
<path d="M34.5003 35.6722C52.2946 35.6722 66.7203 28.2078 66.7203 19C66.7203 9.79225 52.2946 2.32767 34.5003 2.32767C16.7059 2.32767 2.28027 9.79225 2.28027 19C2.28027 28.2078 16.7059 35.6722 34.5003 35.6722Z" fill="white" fill-opacity="0.6"/>
</g>
<mask id="mask2_126_263" style="mask-type:luminance" maskUnits="userSpaceOnUse" x="-1" y="-2" width="71" height="42">
<path d="M-0.426758 -1.06012H69.4269V39.0601H-0.426758V-1.06012Z" fill="white"/>
</mask>
<g mask="url(#mask2_126_263)">
<path d="M19.1874 21.0671C20.6506 21.0671 21.7429 20.7916 22.434 20.2485C23.1177 19.7109 23.59 18.7796 23.8375 17.4805C24.0683 16.2663 23.9804 15.4184 23.5763 14.9609C23.1631 14.4936 22.2698 14.2566 20.9212 14.2566H18.583L17.2867 21.0671H19.1874ZM11.5395 29.4564C11.431 29.4564 11.3279 29.4069 11.2589 29.3212C11.1897 29.2356 11.1617 29.123 11.1825 29.0141L14.6179 10.9661C14.6511 10.7916 14.8009 10.6656 14.9751 10.6656H22.3793C24.7063 10.6656 26.4383 11.3107 27.527 12.5833C28.6215 13.8625 28.9595 15.6507 28.5315 17.8981C28.3574 18.8137 28.0578 19.664 27.6413 20.4253C27.2242 21.1875 26.673 21.8927 26.0027 22.5217C25.2004 23.2884 24.2923 23.8444 23.3061 24.1716C22.3355 24.4944 21.0891 24.6581 19.6014 24.6581H16.6033L15.7471 29.1558C15.7139 29.3304 15.5642 29.4564 15.3901 29.4564H11.5395Z" fill="white"/>
<path d="M18.8825 14.628H20.9208C22.5484 14.628 23.1138 14.9927 23.3059 15.21C23.6246 15.5709 23.6848 16.3317 23.4799 17.4101C23.2498 18.6174 22.8231 19.4734 22.2117 19.9541C21.5856 20.4462 20.5679 20.6956 19.187 20.6956H17.7276L18.8825 14.628ZM22.3789 10.2941H14.9745C14.6262 10.2941 14.3268 10.5462 14.2603 10.8952L10.8249 28.9433C10.7834 29.1611 10.8395 29.3863 10.9776 29.5576C11.1158 29.7288 11.3218 29.8279 11.5391 29.8279H15.3895C15.7379 29.8279 16.0374 29.5758 16.1038 29.2267L16.9028 25.0296H19.601C21.1269 25.0296 22.4114 24.8597 23.4186 24.5247C24.4544 24.1811 25.4073 23.5985 26.2508 22.7931C26.9484 22.1378 27.523 21.4023 27.9583 20.6067C28.3938 19.8108 28.7067 18.9234 28.8883 17.9689C29.3388 15.6033 28.9728 13.709 27.8006 12.339C26.6397 10.982 24.8155 10.2941 22.3789 10.2941ZM16.8448 21.4386H19.187C20.7394 21.4386 21.8957 21.14 22.6555 20.5428C23.4154 19.9454 23.9279 18.9485 24.1942 17.5515C24.449 16.2102 24.333 15.2636 23.8461 14.7122C23.3585 14.1608 22.3836 13.8851 20.9208 13.8851H18.2826L16.8448 21.4386ZM22.3789 11.037C24.6063 11.037 26.2313 11.6339 27.2526 12.8277C28.2739 14.0215 28.5814 15.6879 28.174 17.8272C28.0062 18.7085 27.7226 19.5143 27.3232 20.2442C26.9234 20.9747 26.4013 21.6426 25.7561 22.2483C24.9872 22.9829 24.1331 23.5065 23.1932 23.8183C22.2534 24.1309 21.0563 24.2866 19.601 24.2866H16.3028L15.3895 29.0849H11.5391L14.9745 11.037H22.3789Z" fill="black"/>
<path d="M37.3593 24.6581C37.2506 24.6581 37.1477 24.6085 37.0787 24.5229C37.0094 24.4373 36.9814 24.3247 37.0021 24.2158L38.5218 16.2302C38.6664 15.4708 38.6307 14.9257 38.4215 14.6954C38.2935 14.5546 37.9088 14.3185 36.7713 14.3185H34.0182L32.1075 24.3574C32.0743 24.532 31.9245 24.6581 31.7504 24.6581H27.9302C27.8216 24.6581 27.7186 24.6085 27.6495 24.5229C27.5804 24.4373 27.5524 24.3246 27.5731 24.2158L31.0085 6.16776C31.0418 5.99328 31.1915 5.86723 31.3657 5.86723H35.1858C35.2945 5.86723 35.3974 5.91676 35.4666 6.00232C35.5357 6.08801 35.5637 6.20057 35.543 6.30954L34.7139 10.6655H37.6757C39.932 10.6655 41.462 11.0717 42.3531 11.9073C43.2614 12.7597 43.5448 14.1227 43.1956 15.9588L41.5972 24.3574C41.564 24.532 41.4143 24.6581 41.24 24.6581H37.3593Z" fill="white"/>
<path d="M35.1864 5.49572H31.3663C31.0178 5.49572 30.7184 5.74783 30.6519 6.0969L27.2165 24.1449C27.175 24.3627 27.2311 24.588 27.3693 24.7592C27.5076 24.9305 27.7135 25.0295 27.9308 25.0295H31.7509C32.0992 25.0295 32.3988 24.7774 32.4652 24.4284L34.3187 14.6899H36.7719C37.9074 14.6899 38.1457 14.9376 38.1553 14.9482C38.2242 15.0239 38.3147 15.3743 38.1652 16.1594L36.6455 24.1449C36.6041 24.3627 36.6601 24.588 36.7983 24.7592C36.9366 24.9305 37.1425 25.0295 37.3598 25.0295H41.2406C41.5889 25.0295 41.8884 24.7774 41.9549 24.4284L43.5532 16.0297C43.9283 14.0583 43.6074 12.5794 42.5998 11.6339C41.6384 10.7323 40.0279 10.294 37.6762 10.294H35.1557L35.9007 6.38047C35.942 6.16266 35.8861 5.93729 35.7479 5.76616C35.6096 5.59491 35.4037 5.49572 35.1864 5.49572ZM35.1864 6.23869L34.2731 11.037H37.6762C39.8176 11.037 41.2946 11.4186 42.1075 12.1809C42.9204 12.9437 43.1639 14.1796 42.839 15.8881L41.2406 24.2866H37.3598L38.8795 16.3012C39.0525 15.3928 38.9889 14.7731 38.6886 14.4428C38.3882 14.1124 37.7492 13.947 36.7719 13.947H33.7187L31.7509 24.2866H27.9308L31.3663 6.23869H35.1864Z" fill="black"/>
<path d="M49.2401 21.0671C50.7033 21.0671 51.7956 20.7916 52.4867 20.2485C53.1705 19.7111 53.6427 18.7797 53.8903 17.4805C54.1211 16.2663 54.0332 15.4184 53.629 14.9609C53.2158 14.4936 52.3225 14.2566 50.974 14.2566H48.6357L47.3394 21.0671H49.2401ZM41.5923 29.4564C41.4838 29.4564 41.3807 29.4069 41.3117 29.3212C41.2426 29.2356 41.2145 29.123 41.2352 29.0141L44.6706 10.9661C44.704 10.7916 44.8536 10.6656 45.0279 10.6656H52.432C54.7592 10.6656 56.4911 11.3107 57.5799 12.5833C58.6744 13.8624 59.0122 15.6506 58.5844 17.8981C58.41 18.8137 58.1105 19.664 57.694 20.4253C57.2769 21.1875 56.7257 21.8927 56.0554 22.5217C55.2531 23.2884 54.345 23.8444 53.3588 24.1716C52.3883 24.4944 51.1418 24.6581 49.6541 24.6581H46.6559L45.8001 29.1558C45.7667 29.3304 45.6171 29.4564 45.4428 29.4564H41.5923Z" fill="white"/>
<path d="M48.936 14.628H50.9744C52.602 14.628 53.1674 14.9927 53.3595 15.21C53.6783 15.5709 53.7385 16.3317 53.5335 17.4099C53.3034 18.6174 52.8766 19.4734 52.2652 19.9541C51.6392 20.4462 50.6215 20.6956 49.2406 20.6956H47.7813L48.936 14.628ZM52.4325 10.2941H45.0282C44.6799 10.2941 44.3805 10.5462 44.3141 10.8952L40.8786 28.9433C40.8371 29.1611 40.8932 29.3863 41.0313 29.5576C41.1696 29.7288 41.3755 29.8279 41.5928 29.8279H45.4432C45.7915 29.8279 46.0911 29.5758 46.1575 29.2267L46.9564 25.0296H49.6546C51.1805 25.0296 52.465 24.8597 53.4722 24.5247C54.508 24.1811 55.4612 23.5984 56.3046 22.7929C57.0022 22.1377 57.5766 21.4023 58.0119 20.6067C58.4474 19.8108 58.7603 18.9234 58.9419 17.9689C59.3924 15.6032 59.0264 13.7089 57.8541 12.3388C56.6933 10.982 54.8692 10.2941 52.4325 10.2941ZM46.8985 21.4386H49.2406C50.793 21.4386 51.9493 21.14 52.7091 20.5428C53.4691 19.9454 53.9815 18.9485 54.2478 17.5515C54.5027 16.2102 54.3867 15.2636 53.8997 14.7122C53.4121 14.1608 52.4372 13.8851 50.9744 13.8851H48.3362L46.8985 21.4386ZM52.4325 11.037C54.6599 11.037 56.2849 11.6339 57.3062 12.8277C58.3276 14.0215 58.635 15.6879 58.2275 17.8272C58.0598 18.7085 57.7762 19.5143 57.3768 20.2442C56.977 20.9747 56.4549 21.6426 55.8097 22.2483C55.0408 22.9829 54.1867 23.5065 53.2468 23.8183C52.307 24.1309 51.1099 24.2866 49.6546 24.2866H46.3564L45.4432 29.0849H41.5928L45.0282 11.037H52.4325Z" fill="black"/>
</g>
<defs>
<radialGradient id="paint0_radial_126_263" cx="0" cy="0" r="1" gradientUnits="userSpaceOnUse" gradientTransform="translate(21.1021 7.32218) scale(44.0294 44.9566)">
<stop stop-color="white" stop-opacity="0.6"/>
<stop offset="0.3" stop-color="white"/>
<stop offset="0.75" stop-color="white" stop-opacity="0.6"/>
<stop offset="1" stop-color="white"/>
</radialGradient>
</defs>
</svg>
