<svg width="109" height="29" viewBox="0 0 109 29" fill="none" xmlns="http://www.w3.org/2000/svg">
<path d="M40.528 23C40.08 23 39.68 22.864 39.328 22.592C38.976 22.304 38.8 21.952 38.8 21.536V7.664C38.8 7.248 38.936 6.904 39.208 6.632C39.496 6.344 39.848 6.2 40.264 6.2H47.176C48.008 6.2 48.784 6.424 49.504 6.872C50.24 7.304 50.832 7.912 51.28 8.696C51.728 9.464 51.952 10.352 51.952 11.36C51.952 11.968 51.824 12.56 51.568 13.136C51.328 13.712 50.992 14.232 50.56 14.696C50.144 15.16 49.672 15.52 49.144 15.776L49.168 15.224C49.616 15.464 49.984 15.752 50.272 16.088C50.576 16.408 50.808 16.76 50.968 17.144C51.144 17.512 51.248 17.912 51.28 18.344C51.344 18.744 51.384 19.096 51.4 19.4C51.432 19.704 51.48 19.96 51.544 20.168C51.624 20.376 51.768 20.536 51.976 20.648C52.328 20.856 52.544 21.16 52.624 21.56C52.72 21.944 52.632 22.288 52.36 22.592C52.184 22.8 51.96 22.936 51.688 23C51.416 23.048 51.144 23.048 50.872 23C50.6 22.936 50.376 22.856 50.2 22.76C49.928 22.6 49.656 22.368 49.384 22.064C49.112 21.744 48.888 21.32 48.712 20.792C48.552 20.264 48.472 19.584 48.472 18.752C48.472 18.48 48.424 18.232 48.328 18.008C48.232 17.768 48.096 17.568 47.92 17.408C47.744 17.232 47.52 17.104 47.248 17.024C46.976 16.928 46.656 16.88 46.288 16.88H41.44L41.8 16.328V21.536C41.8 21.952 41.688 22.304 41.464 22.592C41.24 22.864 40.928 23 40.528 23ZM41.464 14.408H47.056C47.344 14.408 47.624 14.28 47.896 14.024C48.168 13.752 48.392 13.392 48.568 12.944C48.744 12.48 48.832 11.976 48.832 11.432C48.832 10.728 48.64 10.144 48.256 9.68C47.888 9.2 47.488 8.96 47.056 8.96H41.512L41.8 8.192V14.984L41.464 14.408ZM61.4474 23.24C60.0874 23.24 58.9034 22.96 57.8954 22.4C56.9034 21.824 56.1354 21.048 55.5914 20.072C55.0634 19.096 54.7994 17.992 54.7994 16.76C54.7994 15.32 55.0874 14.096 55.6634 13.088C56.2554 12.064 57.0234 11.28 57.9674 10.736C58.9114 10.192 59.9114 9.92 60.9674 9.92C61.7834 9.92 62.5514 10.088 63.2714 10.424C64.0074 10.76 64.6554 11.224 65.2154 11.816C65.7754 12.392 66.2154 13.064 66.5354 13.832C66.8714 14.6 67.0394 15.416 67.0394 16.28C67.0234 16.664 66.8714 16.976 66.5834 17.216C66.2954 17.456 65.9594 17.576 65.5754 17.576H56.4074L55.6874 15.176H64.4954L63.9674 15.656V15.008C63.9354 14.544 63.7674 14.128 63.4634 13.76C63.1754 13.392 62.8074 13.104 62.3594 12.896C61.9274 12.672 61.4634 12.56 60.9674 12.56C60.4874 12.56 60.0394 12.624 59.6234 12.752C59.2074 12.88 58.8474 13.096 58.5434 13.4C58.2394 13.704 57.9994 14.112 57.8234 14.624C57.6474 15.136 57.5594 15.784 57.5594 16.568C57.5594 17.432 57.7354 18.168 58.0874 18.776C58.4554 19.368 58.9194 19.824 59.4794 20.144C60.0554 20.448 60.6634 20.6 61.3034 20.6C61.8954 20.6 62.3674 20.552 62.7194 20.456C63.0714 20.36 63.3514 20.248 63.5594 20.12C63.7834 19.976 63.9834 19.856 64.1594 19.76C64.4474 19.616 64.7194 19.544 64.9754 19.544C65.3274 19.544 65.6154 19.664 65.8394 19.904C66.0794 20.144 66.1994 20.424 66.1994 20.744C66.1994 21.176 65.9754 21.568 65.5274 21.92C65.1114 22.272 64.5274 22.584 63.7754 22.856C63.0234 23.112 62.2474 23.24 61.4474 23.24ZM80.6414 9.92C81.0574 9.92 81.4014 10.056 81.6734 10.328C81.9454 10.6 82.0814 10.952 82.0814 11.384V21.536C82.0814 21.952 81.9454 22.304 81.6734 22.592C81.4014 22.864 81.0574 23 80.6414 23C80.2254 23 79.8814 22.864 79.6094 22.592C79.3374 22.304 79.2014 21.952 79.2014 21.536V20.36L79.7294 20.576C79.7294 20.784 79.6174 21.04 79.3934 21.344C79.1694 21.632 78.8654 21.92 78.4814 22.208C78.0974 22.496 77.6414 22.744 77.1134 22.952C76.6014 23.144 76.0414 23.24 75.4334 23.24C74.3294 23.24 73.3294 22.96 72.4334 22.4C71.5374 21.824 70.8254 21.04 70.2974 20.048C69.7854 19.04 69.5294 17.888 69.5294 16.592C69.5294 15.28 69.7854 14.128 70.2974 13.136C70.8254 12.128 71.5294 11.344 72.4094 10.784C73.2894 10.208 74.2654 9.92 75.3374 9.92C76.0254 9.92 76.6574 10.024 77.2334 10.232C77.8094 10.44 78.3054 10.704 78.7214 11.024C79.1534 11.344 79.4814 11.672 79.7054 12.008C79.9454 12.328 80.0654 12.6 80.0654 12.824L79.2014 13.136V11.384C79.2014 10.968 79.3374 10.624 79.6094 10.352C79.8814 10.064 80.2254 9.92 80.6414 9.92ZM75.7934 20.6C76.4974 20.6 77.1134 20.424 77.6414 20.072C78.1694 19.72 78.5774 19.24 78.8654 18.632C79.1694 18.024 79.3214 17.344 79.3214 16.592C79.3214 15.824 79.1694 15.136 78.8654 14.528C78.5774 13.92 78.1694 13.44 77.6414 13.088C77.1134 12.736 76.4974 12.56 75.7934 12.56C75.1054 12.56 74.4974 12.736 73.9694 13.088C73.4414 13.44 73.0254 13.92 72.7214 14.528C72.4334 15.136 72.2894 15.824 72.2894 16.592C72.2894 17.344 72.4334 18.024 72.7214 18.632C73.0254 19.24 73.4414 19.72 73.9694 20.072C74.4974 20.424 75.1054 20.6 75.7934 20.6ZM91.3917 9.92C92.3037 9.92 93.0957 10.016 93.7677 10.208C94.4557 10.4 94.9837 10.672 95.3517 11.024C95.7357 11.36 95.9277 11.768 95.9277 12.248C95.9277 12.568 95.8317 12.872 95.6397 13.16C95.4477 13.432 95.1677 13.568 94.7997 13.568C94.5437 13.568 94.3277 13.536 94.1517 13.472C93.9917 13.392 93.8477 13.296 93.7197 13.184C93.5917 13.072 93.4397 12.968 93.2637 12.872C93.1037 12.776 92.8557 12.704 92.5197 12.656C92.1997 12.592 91.9597 12.56 91.7997 12.56C90.9837 12.56 90.2877 12.736 89.7117 13.088C89.1517 13.44 88.7197 13.92 88.4157 14.528C88.1117 15.12 87.9597 15.808 87.9597 16.592C87.9597 17.36 88.1117 18.048 88.4157 18.656C88.7357 19.248 89.1677 19.72 89.7117 20.072C90.2717 20.424 90.9117 20.6 91.6317 20.6C92.0317 20.6 92.3757 20.576 92.6637 20.528C92.9517 20.48 93.1917 20.408 93.3837 20.312C93.6077 20.184 93.8077 20.048 93.9837 19.904C94.1597 19.76 94.4237 19.688 94.7757 19.688C95.1917 19.688 95.5117 19.824 95.7357 20.096C95.9597 20.352 96.0717 20.672 96.0717 21.056C96.0717 21.456 95.8477 21.824 95.3997 22.16C94.9517 22.48 94.3597 22.744 93.6237 22.952C92.9037 23.144 92.1197 23.24 91.2717 23.24C90.0077 23.24 88.9117 22.952 87.9837 22.376C87.0557 21.784 86.3357 20.984 85.8237 19.976C85.3277 18.968 85.0797 17.84 85.0797 16.592C85.0797 15.28 85.3437 14.128 85.8717 13.136C86.4157 12.128 87.1597 11.344 88.1037 10.784C89.0637 10.208 90.1597 9.92 91.3917 9.92ZM98.7724 10.4H104.46C104.844 10.4 105.164 10.528 105.42 10.784C105.676 11.04 105.804 11.36 105.804 11.744C105.804 12.112 105.676 12.424 105.42 12.68C105.164 12.92 104.844 13.04 104.46 13.04H98.7724C98.3884 13.04 98.0684 12.912 97.8124 12.656C97.5564 12.4 97.4284 12.08 97.4284 11.696C97.4284 11.328 97.5564 11.024 97.8124 10.784C98.0684 10.528 98.3884 10.4 98.7724 10.4ZM101.34 7.4C101.756 7.4 102.092 7.544 102.348 7.832C102.62 8.104 102.756 8.448 102.756 8.864V19.544C102.756 19.768 102.796 19.952 102.876 20.096C102.972 20.24 103.092 20.344 103.236 20.408C103.396 20.472 103.564 20.504 103.74 20.504C103.932 20.504 104.108 20.472 104.268 20.408C104.428 20.328 104.612 20.288 104.82 20.288C105.044 20.288 105.244 20.392 105.42 20.6C105.612 20.808 105.708 21.096 105.708 21.464C105.708 21.912 105.46 22.28 104.964 22.568C104.484 22.856 103.964 23 103.404 23C103.068 23 102.692 22.976 102.276 22.928C101.876 22.864 101.492 22.728 101.124 22.52C100.772 22.296 100.476 21.96 100.236 21.512C99.9964 21.064 99.8764 20.448 99.8764 19.664V8.864C99.8764 8.448 100.012 8.104 100.284 7.832C100.572 7.544 100.924 7.4 101.34 7.4Z" fill="white"/>
<path d="M16.0562 11.3848C14.3635 11.3848 12.9912 12.7668 12.9912 14.4717C12.9912 16.1765 14.3635 17.5586 16.0562 17.5586C17.749 17.5586 19.1213 16.1765 19.1213 14.4717C19.1213 12.7668 17.749 11.3848 16.0562 11.3848Z" fill="white"/>
<path d="M31.9977 14.4997C31.9977 12.0762 29.7694 9.95071 26.2215 8.5519C26.2689 8.23688 26.3118 7.92528 26.3423 7.61936C26.6923 4.13712 25.8592 1.62381 23.9977 0.541153C21.9151 -0.670012 18.9733 0.209078 15.9989 2.60639C13.0244 0.209078 10.0827 -0.670012 8 0.541153C6.13856 1.62381 5.30549 4.13712 5.65543 7.61936C5.6859 7.92528 5.72767 8.23802 5.77621 8.55417C5.48046 8.6679 5.19035 8.78844 4.91153 8.91468C1.74404 10.3487 0 12.3344 0 14.4997C0 16.9231 2.22831 19.0487 5.77621 20.4475C5.72767 20.7625 5.6859 21.0741 5.65543 21.38C5.30549 24.8622 6.13856 27.3756 8 28.4582C8.63998 28.8237 9.36517 29.0106 10.1007 28.9995C11.864 28.9995 13.923 28.0647 15.9989 26.393C18.0737 28.0647 20.1338 28.9995 21.8993 28.9995C22.6348 29.0104 23.36 28.8236 24 28.4582C25.8614 27.3756 26.6945 24.8622 26.3446 21.38C26.3141 21.0741 26.2712 20.7625 26.2238 20.4475C29.7717 19.0509 32 16.922 32 14.4997M21.8857 1.5351C22.3587 1.52361 22.8262 1.639 23.2403 1.86945C24.5328 2.62117 25.113 4.66025 24.8308 7.46355C24.8116 7.65461 24.7891 7.84794 24.762 8.04241C23.2867 7.59483 21.7761 7.27561 20.2466 7.08826C19.3195 5.84668 18.2885 4.68738 17.1649 3.62308C18.9293 2.24929 20.5853 1.5351 21.8846 1.5351M21.2784 17.5702C20.7075 18.5685 20.0858 19.5365 19.4158 20.4702C18.2802 20.5877 17.1393 20.6462 15.9977 20.6454C14.8565 20.6462 13.716 20.5877 12.5808 20.4702C11.9126 19.5364 11.2928 18.5685 10.7239 17.5702C10.153 16.5747 9.63414 15.5498 9.16947 14.4997C9.63414 13.4496 10.153 12.4247 10.7239 11.4291C11.2919 10.4349 11.9098 9.47037 12.5751 8.53939C13.7125 8.41895 14.8553 8.35898 15.9989 8.3597C17.1401 8.35901 18.2806 8.41746 19.4158 8.53484C20.0835 9.46726 20.7036 10.4333 21.2739 11.4291C21.8443 12.4249 22.3632 13.4498 22.8283 14.4997C22.3632 15.5496 21.8443 16.5745 21.2739 17.5702M23.6049 16.433C23.9632 17.4172 24.2573 18.4239 24.4854 19.4467C23.4955 19.7576 22.4864 20.0026 21.4647 20.1802C21.853 19.5904 22.2292 18.9766 22.5935 18.339C22.9536 17.709 23.2911 17.0733 23.6094 16.4375M13.8552 22.1113C14.5574 22.1545 15.2742 22.1795 16 22.1795C16.7258 22.1795 17.4472 22.1545 18.1504 22.1113C17.4836 22.9159 16.7653 23.6756 16 24.3857C15.2364 23.6758 14.5199 22.916 13.8552 22.1113ZM10.5342 20.1779C9.51211 20.0011 8.50265 19.7569 7.51235 19.4467C7.73953 18.4255 8.03252 17.4203 8.38945 16.4375C8.70326 17.0733 9.03965 17.709 9.40539 18.339C9.77113 18.969 10.1493 19.59 10.5342 20.1802M8.38945 12.5607C8.0338 11.5815 7.74157 10.5802 7.5146 9.56291C8.50245 9.25238 9.50921 9.0066 10.5286 8.82711C10.1425 9.41506 9.76436 10.0246 9.39975 10.6603C9.03514 11.2961 8.70213 11.9238 8.3838 12.5607M18.1436 6.88697C17.4415 6.84376 16.7247 6.81874 15.9932 6.81874C15.2678 6.81874 14.5528 6.84148 13.8485 6.88697C14.5131 6.08227 15.2296 5.32247 15.9932 4.61248C16.7588 5.32228 17.4772 6.08209 18.1436 6.88697ZM22.5912 10.6603C22.2255 10.022 21.8473 9.40786 21.4568 8.81801C22.4812 8.99561 23.493 9.24103 24.4854 9.55267C24.2577 10.5737 23.9647 11.5789 23.6083 12.5618C23.2945 11.9261 22.957 11.2904 22.5924 10.6615M7.17144 7.46469C6.88585 4.66252 7.46945 2.62231 8.76083 1.87059C9.1751 1.6405 9.6425 1.52513 10.1154 1.53624C11.4147 1.53624 13.0707 2.25043 14.8351 3.62422C13.7107 4.68927 12.679 5.84932 11.7511 7.09168C10.2221 7.27991 8.71162 7.59795 7.23578 8.04241C7.20982 7.84794 7.18612 7.65575 7.16805 7.46469M5.5369 10.3146C5.71074 10.2388 5.88796 10.163 6.06858 10.0872C6.42365 11.5964 6.90513 13.0725 7.50783 14.4997C6.90399 15.9297 6.42212 17.4089 6.06745 18.9213C3.1912 17.7329 1.52392 16.0861 1.52392 14.4997C1.52392 12.9962 2.99139 11.4712 5.5369 10.3146ZM8.76083 27.1288C7.46945 26.3771 6.88585 24.3368 7.17144 21.5347C7.1895 21.3436 7.21321 21.1514 7.23917 20.9558C8.71444 21.4033 10.2251 21.7225 11.7545 21.91C12.6819 23.152 13.7129 24.312 14.8362 25.3774C12.3765 27.2914 10.129 27.9226 8.76422 27.1288M24.8297 21.5347C25.1119 24.338 24.5317 26.3771 23.2392 27.1288C21.8755 27.9248 19.6269 27.2914 17.1683 25.3774C18.2913 24.312 19.3219 23.152 20.2489 21.91C21.7783 21.7226 23.289 21.4034 24.7642 20.9558C24.7913 21.1514 24.8139 21.3436 24.8331 21.5347M25.9371 18.919C25.5814 17.4075 25.0992 15.9291 24.4956 14.4997C25.0989 13.0695 25.5808 11.5903 25.9359 10.0781C28.8065 11.2665 30.4783 12.9132 30.4783 14.4997C30.4783 16.0861 28.8111 17.7329 25.9348 18.9213" fill="white"/>
</svg>
