<svg width="140" height="27" viewBox="0 0 140 27" fill="none" xmlns="http://www.w3.org/2000/svg">
<g clip-path="url(#clip0_126_52)">
<path d="M36.4814 15.9517C36.6258 17.29 37.8535 19.5843 41.4164 19.5843C44.5217 19.5843 46.0145 17.6246 46.0145 15.7127C46.0145 13.9919 44.8347 12.5819 42.4998 12.1039L40.8145 11.7454C40.1646 11.6259 39.7313 11.2674 39.7313 10.6938C39.7313 10.0247 40.4053 9.52281 41.2479 9.52281C42.5959 9.52281 43.1014 10.407 43.1978 11.1002L45.8699 10.5027C45.7255 9.23601 44.594 7.10901 41.2239 7.10901C38.672 7.10901 36.7945 8.85364 36.7945 10.9567C36.7945 12.6058 37.8294 13.9681 40.1164 14.4699L41.6812 14.8284C42.5959 15.0196 42.9571 15.4498 42.9571 15.9756C42.9571 16.597 42.4516 17.1466 41.3923 17.1466C39.9961 17.1466 39.2978 16.2862 39.2258 15.3542L36.4814 15.9517Z" fill="white"/>
<path d="M56.2461 19.2259H59.3034C59.2552 18.8196 59.1829 18.0071 59.1829 17.0989V7.46753H55.981V14.3027C55.981 15.6649 55.1627 16.6209 53.7425 16.6209C52.2499 16.6209 51.5757 15.5693 51.5757 14.2549V7.46753H48.374V14.9002C48.374 17.4574 50.0109 19.5366 52.8757 19.5366C54.1273 19.5366 55.5 19.0586 56.1499 17.9593C56.1499 18.4372 56.1979 18.9869 56.2461 19.2259Z" fill="white"/>
<path d="M65.8011 23.7668V18.0788C66.3786 18.8675 67.5825 19.5128 69.2196 19.5128C72.5656 19.5128 74.8042 16.8838 74.8042 13.3229C74.8042 9.83363 72.8064 7.20471 69.3398 7.20471C67.5586 7.20471 66.2345 7.99335 65.7049 8.90155V7.46759H62.5996V23.7668H65.8011ZM71.6507 13.3468C71.6507 15.4499 70.3509 16.6688 68.7138 16.6688C67.0772 16.6688 65.7531 15.426 65.7531 13.3468C65.7531 11.2676 67.0772 10.0487 68.7138 10.0487C70.3509 10.0487 71.6507 11.2676 71.6507 13.3468Z" fill="white"/>
<path d="M76.6182 16.0234C76.6182 17.8636 78.1586 19.5605 80.6866 19.5605C82.4435 19.5605 83.575 18.7478 84.1767 17.8158C84.1767 18.2699 84.2249 18.9151 84.2972 19.2258H87.2341C87.1618 18.8196 87.09 17.9831 87.09 17.3617V11.5781C87.09 9.21209 85.6936 7.10901 81.9384 7.10901C78.7606 7.10901 77.0512 9.14039 76.8589 10.9806L79.6994 11.5781C79.7958 10.5505 80.5661 9.6662 81.962 9.6662C83.3105 9.6662 83.9603 10.3593 83.9603 11.1957C83.9603 11.602 83.744 11.9366 83.0697 12.0322L80.157 12.4624C78.183 12.7492 76.6182 13.9202 76.6182 16.0234ZM81.3603 17.1944C80.3254 17.1944 79.8196 16.5252 79.8196 15.8322C79.8196 14.924 80.4695 14.4699 81.2883 14.3504L83.9603 13.9441V14.4699C83.9603 16.5492 82.7085 17.1944 81.3603 17.1944Z" fill="white"/>
<path d="M93.4219 19.226V17.792C94.0475 18.7958 95.2993 19.5128 96.9364 19.5128C100.307 19.5128 102.522 16.8599 102.522 13.299C102.522 9.80969 100.523 7.1569 97.0569 7.1569C95.2993 7.1569 93.9995 7.92167 93.4699 8.75809V1.92297H90.3164V19.226H93.4219ZM99.3195 13.3228C99.3195 15.4738 98.0198 16.6687 96.3827 16.6687C94.7699 16.6687 93.4219 15.4499 93.4219 13.3228C93.4219 11.1719 94.7699 10.0009 96.3827 10.0009C98.0198 10.0009 99.3195 11.1719 99.3195 13.3228Z" fill="white"/>
<path d="M104.335 16.0234C104.335 17.8636 105.875 19.5605 108.403 19.5605C110.16 19.5605 111.292 18.7478 111.894 17.8158C111.894 18.2699 111.942 18.9151 112.014 19.2258H114.951C114.879 18.8196 114.807 17.9831 114.807 17.3617V11.5781C114.807 9.21209 113.41 7.10901 109.655 7.10901C106.477 7.10901 104.768 9.14039 104.576 10.9806L107.416 11.5781C107.513 10.5505 108.283 9.6662 109.679 9.6662C111.027 9.6662 111.677 10.3593 111.677 11.1957C111.677 11.602 111.461 11.9366 110.786 12.0322L107.874 12.4624C105.9 12.7492 104.335 13.9202 104.335 16.0234ZM109.077 17.1944C108.042 17.1944 107.536 16.5252 107.536 15.8322C107.536 14.924 108.186 14.4699 109.005 14.3504L111.677 13.9441V14.4699C111.677 16.5492 110.425 17.1944 109.077 17.1944Z" fill="white"/>
<path d="M117.022 15.9517C117.167 17.29 118.395 19.5843 121.957 19.5843C125.063 19.5843 126.555 17.6246 126.555 15.7127C126.555 13.9919 125.376 12.5819 123.041 12.1039L121.355 11.7454C120.705 11.6259 120.272 11.2674 120.272 10.6938C120.272 10.0247 120.946 9.52281 121.789 9.52281C123.137 9.52281 123.642 10.407 123.739 11.1002L126.411 10.5027C126.266 9.23601 125.135 7.10901 121.765 7.10901C119.213 7.10901 117.335 8.85364 117.335 10.9567C117.335 12.6058 118.37 13.9681 120.657 14.4699L122.222 14.8284C123.137 15.0196 123.498 15.4498 123.498 15.9756C123.498 16.597 122.993 17.1466 121.933 17.1466C120.537 17.1466 119.839 16.2862 119.767 15.3542L117.022 15.9517Z" fill="white"/>
<path d="M131.418 12.0083C131.49 10.9329 132.405 9.69007 134.066 9.69007C135.896 9.69007 136.666 10.8373 136.715 12.0083H131.418ZM137.028 15.0674C136.642 16.1189 135.824 16.8598 134.331 16.8598C132.742 16.8598 131.418 15.7366 131.346 14.1832H139.82C139.82 14.1353 139.868 13.6573 139.868 13.2032C139.868 9.42719 137.677 7.10901 134.018 7.10901C130.985 7.10901 128.192 9.54668 128.192 13.2989C128.192 17.2661 131.057 19.5843 134.307 19.5843C137.22 19.5843 139.098 17.8875 139.7 15.8561L137.028 15.0674Z" fill="white"/>
<path d="M15.3514 26.351C14.6623 27.2115 13.2652 26.74 13.2486 25.6414L13.0059 9.57251H23.9022C25.8758 9.57251 26.9765 11.8329 25.7493 13.3656L15.3514 26.351Z" fill="white"/>
<path d="M15.3514 26.351C14.6623 27.2115 13.2652 26.74 13.2486 25.6414L13.0059 9.57251H23.9022C25.8758 9.57251 26.9765 11.8329 25.7493 13.3656L15.3514 26.351Z" fill="url(#paint0_linear_126_52)" fill-opacity="0.2"/>
<path d="M10.9197 0.494804C11.6087 -0.365708 13.0058 0.10579 13.0224 1.20444L13.1288 17.2733H2.36886C0.39519 17.2733 -0.705564 15.0129 0.521725 13.4802L10.9197 0.494804Z" fill="white"/>
</g>
<defs>
<linearGradient id="paint0_linear_126_52" x1="8.71237" y1="7.30625" x2="13.071" y2="15.5807" gradientUnits="userSpaceOnUse">
<stop/>
<stop offset="1" stop-opacity="0"/>
</linearGradient>
<clipPath id="clip0_126_52">
<rect width="140" height="27" fill="white"/>
</clipPath>
</defs>
</svg>
