<svg width="167" height="21" viewBox="0 0 167 21" fill="none" xmlns="http://www.w3.org/2000/svg">
<g clip-path="url(#clip0_126_42)">
<path d="M17.183 0C12.6 0 9.737 2.291 8.59 6.873C10.309 4.583 12.313 3.723 14.604 4.296C15.911 4.622 16.846 5.57 17.879 6.62C19.564 8.33 21.514 10.309 25.773 10.309C30.355 10.309 33.218 8.018 34.364 3.437C32.646 5.727 30.641 6.587 28.351 6.013C27.043 5.687 26.108 4.739 25.075 3.689C23.39 1.98 21.44 0 17.183 0ZM8.59 10.309C4.01 10.309 1.145 12.6 0 17.182C1.718 14.891 3.723 14.032 6.013 14.605C7.321 14.931 8.256 15.879 9.289 16.929C10.974 18.639 12.924 20.618 17.183 20.618C21.765 20.618 24.628 18.328 25.773 13.746C24.055 16.036 22.051 16.896 19.76 16.323C18.453 15.996 17.518 15.047 16.484 13.998C14.8 12.288 12.849 10.309 8.59 10.309Z" fill="#D9D9D9"/>
<path d="M51.547 8.68801H48.547V14.491C48.547 16.039 49.563 16.015 51.547 15.918V18.264C47.532 18.747 45.936 17.635 45.936 14.491V8.68801H43.71V6.17201H45.935V2.92501L48.547 2.15101V6.17201H51.545V8.68801H51.547ZM62.977 6.17201H65.587V18.264H62.977V16.523C62.057 17.803 60.631 18.578 58.744 18.578C55.456 18.578 52.723 15.798 52.723 12.218C52.723 8.61501 55.456 5.85801 58.744 5.85801C60.63 5.85801 62.057 6.63201 62.977 7.89001V6.17201ZM59.156 16.087C61.332 16.087 62.976 14.467 62.976 12.217C62.976 9.96901 61.332 8.34901 59.156 8.34901C56.979 8.34901 55.335 9.96901 55.335 12.218C55.335 14.467 56.979 16.088 59.155 16.088L59.156 16.087ZM69.94 4.36001C69.4989 4.35507 69.0774 4.17761 68.7656 3.86565C68.4538 3.55369 68.2766 3.13203 68.272 2.69101C68.274 2.24801 68.451 1.82301 68.763 1.51101C68.9174 1.35614 69.1008 1.23327 69.3028 1.14943C69.5047 1.06559 69.7213 1.02243 69.94 1.02243C70.1586 1.02243 70.3752 1.06559 70.5771 1.14943C70.7791 1.23327 70.9626 1.35614 71.117 1.51101C71.429 1.82301 71.607 2.24801 71.608 2.69101C71.608 3.58601 70.858 4.36001 69.94 4.36001ZM68.634 18.265V6.17201H71.246V18.264L68.634 18.265ZM74.269 18.265V0.609009H76.88V18.263H74.27L74.269 18.265ZM93.834 6.17201H96.591L92.794 18.264H90.231L87.715 10.114L85.176 18.264H82.613L78.816 6.17201H81.573L83.919 14.515L86.459 6.17201H88.949L91.463 14.515L93.834 6.17201ZM99.83 4.36001C98.91 4.36001 98.161 3.58601 98.161 2.69101C98.163 2.24801 98.341 1.82301 98.653 1.51101C98.8073 1.35602 98.9907 1.23304 99.1927 1.14913C99.3947 1.06521 99.6112 1.02201 99.83 1.02201C100.049 1.02201 100.265 1.06521 100.467 1.14913C100.669 1.23304 100.853 1.35602 101.007 1.51101C101.32 1.82301 101.497 2.24801 101.499 2.69101C101.499 3.58601 100.749 4.36001 99.83 4.36001ZM98.524 18.265V6.17201H101.136V18.264L98.524 18.265ZM110.52 5.85801C113.228 5.85801 115.163 7.69601 115.163 10.84V18.263H112.551V11.105C112.551 9.26701 111.487 8.30101 109.843 8.30101C108.126 8.30101 106.772 9.31601 106.772 11.783V18.263H104.16V6.17401H106.772V7.72001C107.57 6.46301 108.875 5.85801 110.52 5.85801ZM127.544 1.33601H130.156V18.263H127.544V16.522C126.626 17.804 125.199 18.577 123.313 18.577C120.024 18.577 117.291 15.797 117.291 12.217C117.291 8.61401 120.024 5.85701 123.313 5.85701C125.199 5.85701 126.626 6.63101 127.544 7.88901V1.33601ZM123.723 16.087C125.9 16.087 127.544 14.467 127.544 12.217C127.544 9.96901 125.9 8.34901 123.723 8.34901C121.547 8.34901 119.903 9.96901 119.903 12.218C119.903 14.467 121.547 16.087 123.723 16.087ZM138.91 18.577C135.259 18.577 132.526 15.797 132.526 12.217C132.526 8.61501 135.259 5.85801 138.91 5.85801C141.28 5.85801 143.336 7.09101 144.303 8.97801L142.054 10.284C141.522 9.14701 140.337 8.42101 138.886 8.42101C136.758 8.42101 135.138 10.041 135.138 12.218C135.138 14.394 136.758 16.015 138.886 16.015C140.337 16.015 141.522 15.265 142.102 14.152L144.351 15.434C143.336 17.344 141.28 18.577 138.91 18.577ZM148.656 9.50901C148.656 11.71 155.161 10.379 155.161 14.854C155.161 17.273 153.057 18.578 150.445 18.578C148.027 18.578 146.286 17.489 145.512 15.748L147.761 14.443C148.148 15.531 149.116 16.183 150.445 16.183C151.606 16.183 152.501 15.797 152.501 14.829C152.501 12.678 145.996 13.887 145.996 9.55901C145.996 7.28501 147.955 5.85801 150.421 5.85801C152.404 5.85801 154.049 6.77801 154.895 8.37301L152.695 9.60601C152.259 8.66301 151.412 8.22801 150.421 8.22801C149.478 8.22801 148.656 8.63801 148.656 9.50901ZM159.804 9.50901C159.804 11.71 166.309 10.379 166.309 14.854C166.309 17.273 164.205 18.578 161.593 18.578C159.175 18.578 157.435 17.489 156.66 15.748L158.909 14.443C159.296 15.531 160.263 16.183 161.593 16.183C162.754 16.183 163.649 15.797 163.649 14.829C163.649 12.678 157.144 13.887 157.144 9.55901C157.144 7.28501 159.103 5.85801 161.57 5.85801C163.552 5.85801 165.197 6.77801 166.043 8.37301L163.843 9.60601C163.408 8.66301 162.561 8.22801 161.57 8.22801C160.626 8.22801 159.804 8.63801 159.804 9.50901Z" fill="white"/>
</g>
<defs>
<clipPath id="clip0_126_42">
<rect width="167" height="21" fill="white"/>
</clipPath>
</defs>
</svg>
