<svg width="150" height="32" viewBox="0 0 150 32" fill="none" xmlns="http://www.w3.org/2000/svg">
<path fill-rule="evenodd" clip-rule="evenodd" d="M1.20521 0H30.9337C31.5993 0 32.1389 0.537258 32.1389 1.2V30.8C32.1389 31.4628 31.5993 32 30.9337 32H1.20521C0.53959 32 0 31.4628 0 30.8V1.2C0 0.537258 0.53959 0 1.20521 0ZM17.8658 17.0245V14.4H6.42778V17.0245H10.5114V28.7102H13.7622V17.0245H17.8658ZM19.1619 28.4016C19.6861 28.6677 20.3061 28.8673 21.0219 29.0004C21.7377 29.1334 22.4921 29.2 23.2852 29.2C24.0581 29.2 24.7923 29.1268 25.488 28.9804C26.1835 28.8341 26.7934 28.5929 27.3176 28.2569C27.8419 27.9209 28.2569 27.4818 28.5627 26.9396C28.8685 26.3973 29.0214 25.727 29.0214 24.9286C29.0214 24.3498 28.934 23.8426 28.7593 23.4068C28.5846 22.971 28.3326 22.5834 28.0032 22.2441C27.6739 21.9047 27.279 21.6004 26.8186 21.331C26.3582 21.0615 25.8391 20.807 25.2611 20.5675C24.8376 20.3945 24.4579 20.2265 24.1219 20.0635C23.7858 19.9006 23.5002 19.7342 23.265 19.5646C23.0297 19.3948 22.8483 19.2153 22.7206 19.0256C22.5929 18.8361 22.5291 18.6214 22.5291 18.3819C22.5291 18.1623 22.5862 17.9644 22.7005 17.7882C22.8147 17.6118 22.9759 17.4604 23.1843 17.334C23.3927 17.2076 23.648 17.1095 23.9505 17.0396C24.2529 16.9698 24.589 16.9349 24.9586 16.9349C25.2275 16.9349 25.5114 16.9548 25.8105 16.9947C26.1096 17.0347 26.4104 17.0962 26.7128 17.1793C27.0153 17.2625 27.3093 17.3673 27.595 17.4938C27.8806 17.6202 28.1444 17.7665 28.3864 17.9328V14.9489C27.8956 14.7626 27.3597 14.6245 26.7783 14.5348C26.197 14.4449 25.5299 14.4 24.7771 14.4C24.011 14.4 23.2852 14.4815 22.5996 14.6446C21.9141 14.8075 21.3109 15.062 20.79 15.408C20.2691 15.754 19.8574 16.1947 19.5551 16.7302C19.2526 17.2658 19.1014 17.9062 19.1014 18.6513C19.1014 19.6028 19.3786 20.4145 19.9331 21.0864C20.4876 21.7584 21.3294 22.3273 22.4585 22.793C22.9021 22.9727 23.3154 23.1489 23.6985 23.322C24.0816 23.4949 24.4125 23.6746 24.6915 23.8608C24.9704 24.0471 25.1905 24.25 25.3518 24.4695C25.5132 24.6891 25.5938 24.9386 25.5938 25.2181C25.5938 25.4244 25.5433 25.6156 25.4425 25.7919C25.3417 25.9682 25.1888 26.1212 24.9838 26.251C24.7788 26.3807 24.5235 26.4822 24.2177 26.5553C23.9119 26.6286 23.5539 26.6651 23.144 26.6651C22.445 26.6651 21.7527 26.5438 21.0672 26.3009C20.3818 26.0581 19.7466 25.6938 19.1619 25.2081V28.4016Z" fill="white"/>
<path d="M48.24 24C47.8667 24 47.56 23.8867 47.32 23.66C47.08 23.42 46.96 23.1267 46.96 22.78V11.18H49.56V22.78C49.56 23.1267 49.4333 23.42 49.18 23.66C48.94 23.8867 48.6267 24 48.24 24ZM43.82 12.3C43.4733 12.3 43.18 12.1933 42.94 11.98C42.7133 11.7667 42.6 11.4867 42.6 11.14C42.6 10.7933 42.7133 10.52 42.94 10.32C43.18 10.1067 43.4733 10 43.82 10H52.7C53.0467 10 53.3333 10.1067 53.56 10.32C53.8 10.5333 53.92 10.8133 53.92 11.16C53.92 11.5067 53.8 11.7867 53.56 12C53.3333 12.2 53.0467 12.3 52.7 12.3H43.82ZM63.9642 13.3C64.3109 13.3 64.5976 13.42 64.8242 13.66C65.0509 13.8867 65.1642 14.1733 65.1642 14.52V23.02C65.1642 24.2467 64.9309 25.22 64.4642 25.94C64.0109 26.6733 63.3976 27.2 62.6242 27.52C61.8509 27.84 60.9842 28 60.0242 28C59.5976 28 59.1442 27.9667 58.6642 27.9C58.1842 27.8333 57.7909 27.7333 57.4842 27.6C57.0842 27.4267 56.8042 27.2067 56.6442 26.94C56.4976 26.6867 56.4709 26.4133 56.5642 26.12C56.6842 25.7333 56.8776 25.4667 57.1442 25.32C57.4109 25.1867 57.6909 25.1733 57.9842 25.28C58.1976 25.3467 58.4776 25.4467 58.8242 25.58C59.1709 25.7267 59.5709 25.8 60.0242 25.8C60.6376 25.8 61.1442 25.7133 61.5442 25.54C61.9576 25.38 62.2642 25.1 62.4642 24.7C62.6776 24.3133 62.7842 23.78 62.7842 23.1V21.76L63.2042 22.24C62.9776 22.68 62.6909 23.0467 62.3442 23.34C62.0109 23.62 61.6109 23.8333 61.1442 23.98C60.6776 24.1267 60.1442 24.2 59.5442 24.2C58.8376 24.2 58.2176 24.04 57.6842 23.72C57.1642 23.3867 56.7576 22.9333 56.4642 22.36C56.1709 21.7733 56.0242 21.1067 56.0242 20.36V14.52C56.0242 14.1733 56.1376 13.8867 56.3642 13.66C56.5909 13.42 56.8776 13.3 57.2242 13.3C57.5709 13.3 57.8576 13.42 58.0842 13.66C58.3109 13.8867 58.4242 14.1733 58.4242 14.52V19.64C58.4242 20.5067 58.6109 21.12 58.9842 21.48C59.3709 21.8267 59.9042 22 60.5842 22C61.0509 22 61.4442 21.9133 61.7642 21.74C62.0842 21.5533 62.3309 21.2867 62.5042 20.94C62.6776 20.58 62.7642 20.1467 62.7642 19.64V14.52C62.7642 14.1733 62.8776 13.8867 63.1042 13.66C63.3309 13.42 63.6176 13.3 63.9642 13.3ZM73.7025 13.1C74.6358 13.1 75.4692 13.34 76.2025 13.82C76.9492 14.2867 77.5358 14.9333 77.9625 15.76C78.4025 16.5867 78.6225 17.5467 78.6225 18.64C78.6225 19.7333 78.4025 20.7 77.9625 21.54C77.5358 22.3667 76.9558 23.02 76.2225 23.5C75.5025 23.9667 74.6892 24.2 73.7825 24.2C73.2492 24.2 72.7492 24.1133 72.2825 23.94C71.8158 23.7667 71.4025 23.5467 71.0425 23.28C70.6958 23.0133 70.4225 22.7467 70.2225 22.48C70.0358 22.2 69.9425 21.9667 69.9425 21.78L70.5625 21.52V26.78C70.5625 27.1267 70.4492 27.4133 70.2225 27.64C69.9958 27.88 69.7092 28 69.3625 28C69.0158 28 68.7292 27.8867 68.5025 27.66C68.2758 27.4333 68.1625 27.14 68.1625 26.78V14.52C68.1625 14.1733 68.2758 13.8867 68.5025 13.66C68.7292 13.42 69.0158 13.3 69.3625 13.3C69.7092 13.3 69.9958 13.42 70.2225 13.66C70.4492 13.8867 70.5625 14.1733 70.5625 14.52V15.5L70.2225 15.32C70.2225 15.1467 70.3158 14.94 70.5025 14.7C70.6892 14.4467 70.9425 14.2 71.2625 13.96C71.5825 13.7067 71.9492 13.5 72.3625 13.34C72.7892 13.18 73.2358 13.1 73.7025 13.1ZM73.4025 15.3C72.8158 15.3 72.3025 15.4467 71.8625 15.74C71.4225 16.0333 71.0758 16.4333 70.8225 16.94C70.5825 17.4333 70.4625 18 70.4625 18.64C70.4625 19.2667 70.5825 19.84 70.8225 20.36C71.0758 20.8667 71.4225 21.2667 71.8625 21.56C72.3025 21.8533 72.8158 22 73.4025 22C73.9892 22 74.4958 21.8533 74.9225 21.56C75.3625 21.2667 75.7025 20.8667 75.9425 20.36C76.1958 19.84 76.3225 19.2667 76.3225 18.64C76.3225 18 76.1958 17.4333 75.9425 16.94C75.7025 16.4333 75.3625 16.0333 74.9225 15.74C74.4958 15.4467 73.9892 15.3 73.4025 15.3ZM86.1611 24.2C85.0278 24.2 84.0411 23.9667 83.2011 23.5C82.3744 23.02 81.7344 22.3733 81.2811 21.56C80.8411 20.7467 80.6211 19.8267 80.6211 18.8C80.6211 17.6 80.8611 16.58 81.3411 15.74C81.8344 14.8867 82.4744 14.2333 83.2611 13.78C84.0478 13.3267 84.8811 13.1 85.7611 13.1C86.4411 13.1 87.0811 13.24 87.6811 13.52C88.2944 13.8 88.8344 14.1867 89.3011 14.68C89.7678 15.16 90.1344 15.72 90.4011 16.36C90.6811 17 90.8211 17.68 90.8211 18.4C90.8078 18.72 90.6811 18.98 90.4411 19.18C90.2011 19.38 89.9211 19.48 89.6011 19.48H81.9611L81.3611 17.48H88.7011L88.2611 17.88V17.34C88.2344 16.9533 88.0944 16.6067 87.8411 16.3C87.6011 15.9933 87.2944 15.7533 86.9211 15.58C86.5611 15.3933 86.1744 15.3 85.7611 15.3C85.3611 15.3 84.9878 15.3533 84.6411 15.46C84.2944 15.5667 83.9944 15.7467 83.7411 16C83.4878 16.2533 83.2878 16.5933 83.1411 17.02C82.9944 17.4467 82.9211 17.9867 82.9211 18.64C82.9211 19.36 83.0678 19.9733 83.3611 20.48C83.6678 20.9733 84.0544 21.3533 84.5211 21.62C85.0011 21.8733 85.5078 22 86.0411 22C86.5344 22 86.9278 21.96 87.2211 21.88C87.5144 21.8 87.7478 21.7067 87.9211 21.6C88.1078 21.48 88.2744 21.38 88.4211 21.3C88.6611 21.18 88.8878 21.12 89.1011 21.12C89.3944 21.12 89.6344 21.22 89.8211 21.42C90.0211 21.62 90.1211 21.8533 90.1211 22.12C90.1211 22.48 89.9344 22.8067 89.5611 23.1C89.2144 23.3933 88.7278 23.6533 88.1011 23.88C87.4744 24.0933 86.8278 24.2 86.1611 24.2ZM98.018 24.2C97.0846 24.2 96.2446 24.0867 95.498 23.86C94.7513 23.62 94.038 23.2067 93.358 22.62C93.1846 22.4733 93.0513 22.3067 92.958 22.12C92.8646 21.9333 92.818 21.7467 92.818 21.56C92.818 21.2533 92.9246 20.9867 93.138 20.76C93.3646 20.52 93.6446 20.4 93.978 20.4C94.2313 20.4 94.458 20.48 94.658 20.64C95.1646 21.0533 95.6646 21.3667 96.158 21.58C96.6646 21.7933 97.2846 21.9 98.018 21.9C98.5113 21.9 98.9646 21.8267 99.378 21.68C99.7913 21.52 100.125 21.3133 100.378 21.06C100.631 20.7933 100.758 20.4933 100.758 20.16C100.758 19.76 100.638 19.42 100.398 19.14C100.158 18.86 99.7913 18.6267 99.298 18.44C98.8046 18.24 98.178 18.0867 97.418 17.98C96.698 17.8733 96.0646 17.7133 95.518 17.5C94.9713 17.2733 94.5113 16.9933 94.138 16.66C93.778 16.3133 93.5046 15.9133 93.318 15.46C93.1313 14.9933 93.038 14.4733 93.038 13.9C93.038 13.0333 93.258 12.2933 93.698 11.68C94.1513 11.0667 94.758 10.6 95.518 10.28C96.278 9.96 97.118 9.8 98.038 9.8C98.9046 9.8 99.7046 9.93333 100.438 10.2C101.185 10.4533 101.791 10.78 102.258 11.18C102.645 11.4867 102.838 11.84 102.838 12.24C102.838 12.5333 102.725 12.8 102.498 13.04C102.271 13.28 102.005 13.4 101.698 13.4C101.498 13.4 101.318 13.34 101.158 13.22C100.945 13.0333 100.658 12.86 100.298 12.7C99.938 12.5267 99.558 12.3867 99.158 12.28C98.758 12.16 98.3846 12.1 98.038 12.1C97.4646 12.1 96.978 12.1733 96.578 12.32C96.1913 12.4667 95.898 12.6667 95.698 12.92C95.498 13.1733 95.398 13.4667 95.398 13.8C95.398 14.2 95.5113 14.5333 95.738 14.8C95.978 15.0533 96.318 15.26 96.758 15.42C97.198 15.5667 97.7246 15.7 98.338 15.82C99.138 15.9667 99.838 16.14 100.438 16.34C101.051 16.54 101.558 16.8 101.958 17.12C102.358 17.4267 102.658 17.82 102.858 18.3C103.058 18.7667 103.158 19.34 103.158 20.02C103.158 20.8867 102.918 21.6333 102.438 22.26C101.958 22.8867 101.325 23.3667 100.538 23.7C99.7646 24.0333 98.9246 24.2 98.018 24.2ZM110.412 13.1C111.172 13.1 111.832 13.18 112.392 13.34C112.965 13.5 113.405 13.7267 113.712 14.02C114.032 14.3 114.192 14.64 114.192 15.04C114.192 15.3067 114.112 15.56 113.952 15.8C113.792 16.0267 113.558 16.14 113.252 16.14C113.038 16.14 112.858 16.1133 112.712 16.06C112.578 15.9933 112.458 15.9133 112.352 15.82C112.245 15.7267 112.118 15.64 111.972 15.56C111.838 15.48 111.632 15.42 111.352 15.38C111.085 15.3267 110.885 15.3 110.752 15.3C110.072 15.3 109.492 15.4467 109.012 15.74C108.545 16.0333 108.185 16.4333 107.932 16.94C107.678 17.4333 107.552 18.0067 107.552 18.66C107.552 19.3 107.678 19.8733 107.932 20.38C108.198 20.8733 108.558 21.2667 109.012 21.56C109.478 21.8533 110.012 22 110.612 22C110.945 22 111.232 21.98 111.472 21.94C111.712 21.9 111.912 21.84 112.072 21.76C112.258 21.6533 112.425 21.54 112.572 21.42C112.718 21.3 112.938 21.24 113.232 21.24C113.578 21.24 113.845 21.3533 114.032 21.58C114.218 21.7933 114.312 22.06 114.312 22.38C114.312 22.7133 114.125 23.02 113.752 23.3C113.378 23.5667 112.885 23.7867 112.272 23.96C111.672 24.12 111.018 24.2 110.312 24.2C109.258 24.2 108.345 23.96 107.572 23.48C106.798 22.9867 106.198 22.32 105.772 21.48C105.358 20.64 105.152 19.7 105.152 18.66C105.152 17.5667 105.372 16.6067 105.812 15.78C106.265 14.94 106.885 14.2867 107.672 13.82C108.472 13.34 109.385 13.1 110.412 13.1ZM117.642 24C117.296 24 117.009 23.8867 116.782 23.66C116.556 23.42 116.442 23.1267 116.442 22.78V14.52C116.442 14.1733 116.556 13.8867 116.782 13.66C117.009 13.42 117.296 13.3 117.642 13.3C117.989 13.3 118.276 13.42 118.502 13.66C118.729 13.8867 118.842 14.1733 118.842 14.52V16.4L118.702 15.06C118.849 14.74 119.036 14.46 119.262 14.22C119.502 13.9667 119.769 13.76 120.062 13.6C120.356 13.4267 120.669 13.3 121.002 13.22C121.336 13.14 121.669 13.1 122.002 13.1C122.402 13.1 122.736 13.2133 123.002 13.44C123.282 13.6667 123.422 13.9333 123.422 14.24C123.422 14.68 123.309 15 123.082 15.2C122.856 15.3867 122.609 15.48 122.342 15.48C122.089 15.48 121.856 15.4333 121.642 15.34C121.442 15.2467 121.209 15.2 120.942 15.2C120.702 15.2 120.456 15.26 120.202 15.38C119.962 15.4867 119.736 15.66 119.522 15.9C119.322 16.14 119.156 16.44 119.022 16.8C118.902 17.1467 118.842 17.56 118.842 18.04V22.78C118.842 23.1267 118.729 23.42 118.502 23.66C118.276 23.8867 117.989 24 117.642 24ZM127.774 22.78C127.774 23.1267 127.661 23.42 127.434 23.66C127.207 23.8867 126.921 24 126.574 24C126.227 24 125.941 23.8867 125.714 23.66C125.487 23.42 125.374 23.1267 125.374 22.78V14.52C125.374 14.1733 125.487 13.8867 125.714 13.66C125.941 13.42 126.227 13.3 126.574 13.3C126.921 13.3 127.207 13.42 127.434 13.66C127.661 13.8867 127.774 14.1733 127.774 14.52V22.78ZM126.554 12C126.101 12 125.781 11.9267 125.594 11.78C125.407 11.6333 125.314 11.3733 125.314 11V10.62C125.314 10.2333 125.414 9.97333 125.614 9.84C125.827 9.69333 126.147 9.62 126.574 9.62C127.041 9.62 127.367 9.69333 127.554 9.84C127.741 9.98667 127.834 10.2467 127.834 10.62V11C127.834 11.3867 127.734 11.6533 127.534 11.8C127.334 11.9333 127.007 12 126.554 12ZM136.181 13.1C137.114 13.1 137.947 13.34 138.681 13.82C139.427 14.2867 140.014 14.9333 140.441 15.76C140.881 16.5867 141.101 17.5467 141.101 18.64C141.101 19.7333 140.881 20.7 140.441 21.54C140.014 22.3667 139.434 23.02 138.701 23.5C137.981 23.9667 137.167 24.2 136.261 24.2C135.727 24.2 135.227 24.1133 134.761 23.94C134.294 23.7667 133.881 23.5467 133.521 23.28C133.174 23.0133 132.901 22.7467 132.701 22.48C132.514 22.2 132.421 21.9667 132.421 21.78L133.041 21.52V26.78C133.041 27.1267 132.927 27.4133 132.701 27.64C132.474 27.88 132.187 28 131.841 28C131.494 28 131.207 27.8867 130.981 27.66C130.754 27.4333 130.641 27.14 130.641 26.78V14.52C130.641 14.1733 130.754 13.8867 130.981 13.66C131.207 13.42 131.494 13.3 131.841 13.3C132.187 13.3 132.474 13.42 132.701 13.66C132.927 13.8867 133.041 14.1733 133.041 14.52V15.5L132.701 15.32C132.701 15.1467 132.794 14.94 132.981 14.7C133.167 14.4467 133.421 14.2 133.741 13.96C134.061 13.7067 134.427 13.5 134.841 13.34C135.267 13.18 135.714 13.1 136.181 13.1ZM135.881 15.3C135.294 15.3 134.781 15.4467 134.341 15.74C133.901 16.0333 133.554 16.4333 133.301 16.94C133.061 17.4333 132.941 18 132.941 18.64C132.941 19.2667 133.061 19.84 133.301 20.36C133.554 20.8667 133.901 21.2667 134.341 21.56C134.781 21.8533 135.294 22 135.881 22C136.467 22 136.974 21.8533 137.401 21.56C137.841 21.2667 138.181 20.8667 138.421 20.36C138.674 19.84 138.801 19.2667 138.801 18.64C138.801 18 138.674 17.4333 138.421 16.94C138.181 16.4333 137.841 16.0333 137.401 15.74C136.974 15.4467 136.467 15.3 135.881 15.3ZM143.719 13.5H148.459C148.779 13.5 149.046 13.6067 149.259 13.82C149.473 14.0333 149.579 14.3 149.579 14.62C149.579 14.9267 149.473 15.1867 149.259 15.4C149.046 15.6 148.779 15.7 148.459 15.7H143.719C143.399 15.7 143.133 15.5933 142.919 15.38C142.706 15.1667 142.599 14.9 142.599 14.58C142.599 14.2733 142.706 14.02 142.919 13.82C143.133 13.6067 143.399 13.5 143.719 13.5ZM145.859 11C146.206 11 146.486 11.12 146.699 11.36C146.926 11.5867 147.039 11.8733 147.039 12.22V21.12C147.039 21.3067 147.073 21.46 147.139 21.58C147.219 21.7 147.319 21.7867 147.439 21.84C147.573 21.8933 147.713 21.92 147.859 21.92C148.019 21.92 148.166 21.8933 148.299 21.84C148.433 21.7733 148.586 21.74 148.759 21.74C148.946 21.74 149.113 21.8267 149.259 22C149.419 22.1733 149.499 22.4133 149.499 22.72C149.499 23.0933 149.293 23.4 148.879 23.64C148.479 23.88 148.046 24 147.579 24C147.299 24 146.986 23.98 146.639 23.94C146.306 23.8867 145.986 23.7733 145.679 23.6C145.386 23.4133 145.139 23.1333 144.939 22.76C144.739 22.3867 144.639 21.8733 144.639 21.22V12.22C144.639 11.8733 144.753 11.5867 144.979 11.36C145.219 11.12 145.513 11 145.859 11Z" fill="white"/>
</svg>
