<svg width="137" height="27" viewBox="0 0 137 27" fill="none" xmlns="http://www.w3.org/2000/svg">
<g clip-path="url(#clip0_126_16)">
<path fill-rule="evenodd" clip-rule="evenodd" d="M31.2695 27L15.6347 0L0 27H31.2695ZM47.0388 25.7709L60.1048 1.22728H54.4533L45.44 19.0517L36.4267 1.22728H30.7751L43.8412 25.7709H47.0388ZM136.084 1.22728V25.7709H131.405V1.22728H136.084ZM110.04 16.6102C110.04 14.6975 110.442 13.0151 111.246 11.5632C112.05 10.1113 113.171 8.9936 114.609 8.21008C116.046 7.42651 117.728 7.03475 119.653 7.03475C121.359 7.03475 122.894 7.40345 124.259 8.14092C125.624 8.87838 126.708 9.97307 127.512 11.4249C128.316 12.8768 128.73 14.6513 128.755 16.7485V17.8201H114.974C115.072 19.3411 115.522 20.5395 116.327 21.4153C117.155 22.2679 118.264 22.6943 119.653 22.6943C120.53 22.6943 121.334 22.4638 122.065 22.0029C122.797 21.542 123.345 20.9198 123.71 20.1362L128.499 20.4819C127.914 22.2103 126.818 23.5931 125.209 24.6301C123.601 25.6672 121.749 26.1857 119.653 26.1857C117.728 26.1857 116.046 25.7939 114.609 25.0104C113.171 24.2268 112.05 23.1091 111.246 21.6572C110.442 20.2053 110.04 18.523 110.04 16.6102ZM123.93 14.8818C123.759 13.3838 123.284 12.2892 122.504 11.5978C121.725 10.8834 120.774 10.5262 119.653 10.5262C118.362 10.5262 117.314 10.9064 116.51 11.6669C115.705 12.4274 115.206 13.4991 115.011 14.8818H123.93ZM102.146 11.5978C102.926 12.22 103.413 13.0843 103.608 14.1904L108.433 13.9485C108.263 12.5426 107.763 11.3213 106.935 10.2842C106.106 9.24714 105.034 8.45204 103.718 7.89895C102.426 7.32282 101.001 7.03475 99.4411 7.03475C97.5158 7.03475 95.8346 7.42651 94.3967 8.21008C92.9587 8.9936 91.8381 10.1113 91.0339 11.5632C90.2297 13.0151 89.8276 14.6975 89.8276 16.6102C89.8276 18.523 90.2297 20.2053 91.0339 21.6572C91.8381 23.1091 92.9587 24.2268 94.3967 25.0104C95.8346 25.7939 97.5158 26.1857 99.4411 26.1857C101.05 26.1857 102.512 25.8976 103.828 25.3215C105.143 24.7223 106.216 23.8811 107.044 22.798C107.873 21.7149 108.372 20.4473 108.543 18.9954L103.681 18.7881C103.511 20.0094 103.036 20.9543 102.256 21.6226C101.476 22.2679 100.538 22.5906 99.4411 22.5906C97.9304 22.5906 96.7607 22.072 95.9319 21.035C95.1036 19.9979 94.689 18.523 94.689 16.6102C94.689 14.6975 95.1036 13.2225 95.9319 12.1855C96.7607 11.1484 97.9304 10.6298 99.4411 10.6298C100.489 10.6298 101.39 10.9525 102.146 11.5978ZM78.4105 7.44873H82.7647L82.8902 10.975C83.1993 9.97681 83.6291 9.2017 84.1797 8.64961C84.9777 7.849 86.0904 7.44873 87.5174 7.44873H89.2952V11.223H87.4813C86.4653 11.223 85.6308 11.3602 84.9777 11.6347C84.3486 11.9092 83.8649 12.3438 83.5266 12.9385C83.2118 13.5332 83.055 14.2881 83.055 15.203V25.7709H78.4105V7.44873ZM58.3275 11.5632C57.5233 13.0151 57.1212 14.6975 57.1212 16.6102C57.1212 18.523 57.5233 20.2053 58.3275 21.6572C59.1317 23.1091 60.2528 24.2268 61.6903 25.0104C63.1282 25.7939 64.8094 26.1857 66.7347 26.1857C68.8305 26.1857 70.6826 25.6672 72.291 24.6301C73.899 23.5931 74.996 22.2103 75.5806 20.4819L70.7924 20.1362C70.4264 20.9198 69.8784 21.542 69.1474 22.0029C68.4163 22.4638 67.6121 22.6943 66.7347 22.6943C65.3459 22.6943 64.2368 22.2679 63.4085 21.4153C62.6043 20.5395 62.1536 19.3411 62.0558 17.8201H75.8363V16.7485C75.8122 14.6513 75.3981 12.8768 74.5939 11.4249C73.7897 9.97307 72.7052 8.87838 71.3404 8.14092C69.9756 7.40345 68.4404 7.03475 66.7347 7.03475C64.8094 7.03475 63.1282 7.42651 61.6903 8.21008C60.2528 8.9936 59.1317 10.1113 58.3275 11.5632ZM69.5861 11.5978C70.3657 12.2892 70.841 13.3838 71.0115 14.8818H62.0924C62.2874 13.4991 62.7868 12.4274 63.591 11.6669C64.3952 10.9064 65.4431 10.5262 66.7347 10.5262C67.8558 10.5262 68.8059 10.8834 69.5861 11.5978Z" fill="white"/>
</g>
<defs>
<clipPath id="clip0_126_16">
<rect width="137" height="27" fill="white"/>
</clipPath>
</defs>
</svg>
